<?xml version="1.0" encoding="UTF-8"?>
<svg width="21px" height="29px" viewBox="0 0 21 29" version="1.1" xmlns="http://www.w3.org/2000/svg" xmlns:xlink="http://www.w3.org/1999/xlink">
    <!-- Generator: Sketch 43.2 (39069) - http://www.bohemiancoding.com/sketch -->
    <title>Page 1</title>
    <desc>Created with Sketch.</desc>
    <defs></defs>
    <g id="Home" stroke="none" stroke-width="1" fill="none" fill-rule="evenodd">
        <g id="Menu-(links)" transform="translate(-34.000000, -414.000000)" fill="#1B1B1B">
            <g id="Page-1" transform="translate(34.000000, 414.000000)">
                <path d="M19.024,28.8060222 L2.47466667,28.8060222 C1.276,28.8060222 0.541333333,28.0713556 0.541333333,26.8726889 L0.541333333,2.12731111 C0.541333333,1.04464444 1.392,0.193977778 2.47466667,0.193977778 L13.8027111,0.193977778 C14.0340667,0.193977778 14.1906667,0.347355556 14.1906667,0.581288889 C14.1906667,0.813288889 14.0366444,0.969244444 13.8027111,0.969244444 L2.47466667,0.969244444 C1.81733333,0.969244444 1.31402222,1.47255556 1.31402222,2.12988889 L1.31402222,26.8752667 C1.31402222,27.6479556 1.70197778,28.0359111 2.47466667,28.0359111 L19.024,28.0359111 C19.3713556,28.0359111 19.9120444,27.5326 19.9120444,26.8752667 L19.9120444,2.12988889 C19.9120444,1.47255556 19.4087333,0.969244444 18.7520444,0.969244444 L16.4307556,0.969244444 C16.1994,0.969244444 16.0434444,0.815866667 16.0434444,0.581288889 C16.0434444,0.349933333 16.1968222,0.193977778 16.4307556,0.193977778 L18.7520444,0.193977778 C19.8340667,0.193977778 20.6853778,1.04464444 20.6853778,2.12731111 L20.6853778,26.8726889 C20.6879556,27.9553556 19.7966889,28.8060222 19.024,28.8060222 Z" id="Fill-1"></path>
                <path d="M17.3619778,3.40331111 L17.3619778,9.20331111 L3.82864444,9.20331111 L3.82864444,3.40331111 L17.3619778,3.40331111 L17.3619778,3.40331111 Z M17.7473556,2.62804444 L3.44133333,2.62804444 C3.24735556,2.62804444 3.05337778,2.78142222 3.05337778,3.016 L3.05337778,9.58868889 C3.05337778,9.82004444 3.24735556,9.976 3.44133333,9.976 L17.7473556,9.976 C17.9787111,9.976 18.1353111,9.82262222 18.1353111,9.58868889 L18.1353111,3.016 C18.1353111,2.82202222 17.9787111,2.62804444 17.7473556,2.62804444 Z" id="Fill-2"></path>
                <path d="M17.3619778,12.4506667 L17.3619778,14.5779778 L15.0413333,14.5779778 L15.0413333,12.4506667 L17.3619778,12.4506667 L17.3619778,12.4506667 Z M17.7473556,11.6779778 L14.6533778,11.6779778 C14.4600444,11.6779778 14.2660667,11.8313556 14.2660667,12.0659333 L14.2660667,14.9659333 C14.2660667,15.1592667 14.4600444,15.3532444 14.6533778,15.3532444 L17.7473556,15.3532444 C17.9787111,15.3532444 18.1353111,15.1592667 18.1353111,14.9659333 L18.1353111,12.0659333 C18.1353111,11.8719556 17.9787111,11.6779778 17.7473556,11.6779778 Z" id="Fill-3"></path>
                <path d="M17.3619778,17.8633556 L17.3619778,25.4426667 L15.0413333,25.4426667 L15.0413333,17.8633556 L17.3619778,17.8633556 L17.3619778,17.8633556 Z M17.7473556,17.0906667 L14.6533778,17.0906667 C14.4600444,17.0906667 14.2660667,17.284 14.2660667,17.4779778 L14.2660667,25.8306222 C14.2660667,26.0246 14.4600444,26.2185778 14.6533778,26.2185778 L17.7473556,26.2185778 C17.9787111,26.2185778 18.1353111,26.0246 18.1353111,25.8306222 L18.1353111,17.4779778 C18.1353111,17.284 17.9787111,17.0906667 17.7473556,17.0906667 Z" id="Fill-4"></path>
                <path d="M11.7533778,12.4506667 L11.7533778,14.5779778 L9.43273333,14.5779778 L9.43273333,12.4506667 L11.7533778,12.4506667 L11.7533778,12.4506667 Z M12.1413333,11.6779778 L9.04735556,11.6779778 C8.85337778,11.6779778 8.66004444,11.8313556 8.66004444,12.0659333 L8.66004444,14.9659333 C8.66004444,15.1592667 8.85337778,15.3532444 9.04735556,15.3532444 L12.1413333,15.3532444 C12.3353111,15.3532444 12.5286444,15.1592667 12.5286444,14.9659333 L12.5286444,12.0659333 C12.5286444,11.8719556 12.3726889,11.6779778 12.1413333,11.6779778 Z" id="Fill-5"></path>
                <path d="M6.14735556,12.4506667 L6.14735556,14.5779778 L3.82671111,14.5779778 L3.82671111,12.4506667 L6.14735556,12.4506667 L6.14735556,12.4506667 Z M6.53531111,11.6779778 L3.44133333,11.6779778 C3.24735556,11.6779778 3.05337778,11.8313556 3.05337778,12.0659333 L3.05337778,14.9659333 C3.05337778,15.1592667 3.24735556,15.3532444 3.44133333,15.3532444 L6.53531111,15.3532444 C6.72864444,15.3532444 6.92262222,15.1592667 6.92262222,14.9659333 L6.92262222,12.0659333 C6.92004444,11.8719556 6.76666667,11.6779778 6.53531111,11.6779778 Z" id="Fill-6"></path>
                <path d="M11.7533778,17.9033111 L11.7533778,20.0306222 L9.43273333,20.0306222 L9.43273333,17.9033111 L11.7533778,17.9033111 L11.7533778,17.9033111 Z M12.1413333,17.1280444 L9.04735556,17.1280444 C8.85337778,17.1280444 8.66004444,17.3220222 8.66004444,17.516 L8.66004444,20.416 C8.66004444,20.6473556 8.85337778,20.8033111 9.04735556,20.8033111 L12.1413333,20.8033111 C12.3353111,20.8033111 12.5286444,20.6499333 12.5286444,20.416 L12.5286444,17.516 C12.5286444,17.284 12.3726889,17.1280444 12.1413333,17.1280444 Z" id="Fill-7"></path>
                <path d="M6.14735556,17.9033111 L6.14735556,20.0306222 L3.82671111,20.0306222 L3.82671111,17.9033111 L6.14735556,17.9033111 L6.14735556,17.9033111 Z M6.53531111,17.1280444 L3.44133333,17.1280444 C3.24735556,17.1280444 3.05337778,17.3220222 3.05337778,17.516 L3.05337778,20.416 C3.05337778,20.6473556 3.24735556,20.8033111 3.44133333,20.8033111 L6.53531111,20.8033111 C6.72864444,20.8033111 6.92262222,20.6499333 6.92262222,20.416 L6.92262222,17.516 C6.92004444,17.284 6.76666667,17.1280444 6.53531111,17.1280444 Z" id="Fill-8"></path>
                <path d="M11.7533778,23.316 L11.7533778,25.4426667 L9.43273333,25.4426667 L9.43273333,23.316 L11.7533778,23.316 L11.7533778,23.316 Z M12.1413333,22.5426667 L9.04735556,22.5426667 C8.85337778,22.5426667 8.66004444,22.6966889 8.66004444,22.9306222 L8.66004444,25.8306222 C8.66004444,26.0619778 8.85337778,26.2185778 9.04735556,26.2185778 L12.1413333,26.2185778 C12.3353111,26.2185778 12.5286444,26.0645556 12.5286444,25.8306222 L12.5286444,22.9306222 C12.5286444,22.7366444 12.3726889,22.5426667 12.1413333,22.5426667 Z" id="Fill-9"></path>
                <path d="M6.14735556,23.316 L6.14735556,25.4426667 L3.82671111,25.4426667 L3.82671111,23.316 L6.14735556,23.316 L6.14735556,23.316 Z M6.53531111,22.5426667 L3.44133333,22.5426667 C3.24735556,22.5426667 3.05337778,22.6966889 3.05337778,22.9306222 L3.05337778,25.8306222 C3.05337778,26.0619778 3.24735556,26.2185778 3.44133333,26.2185778 L6.53531111,26.2185778 C6.72864444,26.2185778 6.92262222,26.0645556 6.92262222,25.8306222 L6.92262222,22.9306222 C6.92004444,22.7366444 6.76666667,22.5426667 6.53531111,22.5426667 Z" id="Fill-10"></path>
            </g>
        </g>
    </g>
</svg>