<?xml version="1.0" encoding="UTF-8"?>
<svg width="75px" height="75px" viewBox="0 0 75 75" version="1.1" xmlns="http://www.w3.org/2000/svg" xmlns:xlink="http://www.w3.org/1999/xlink">
    <!-- Generator: Sketch 43.2 (39069) - http://www.bohemiancoding.com/sketch -->
    <title>Group 7</title>
    <desc>Created with Sketch.</desc>
    <defs></defs>
    <g id="Home" stroke="none" stroke-width="1" fill="none" fill-rule="evenodd">
        <g id="Menu-(products)" transform="translate(-771.000000, -320.000000)" fill-rule="nonzero" fill="#000000">
            <g id="NAV-MENU" transform="translate(0.000000, 119.000000)">
                <g id="TYPES" transform="translate(96.000000, 38.000000)">
                    <g id="Group-10" transform="translate(624.000000, 163.000000)">
                        <g id="Group-7" transform="translate(51.000000, 0.000000)">
                            <path d="M2,2 L2,73 L73,73 L73,2 L2,2 Z M0,0 L75,0 L75,75 L0,75 L0,0 Z" id="Rectangle"></path>
                            <path d="M5,24 L24,24 L24,5 L5,5 L5,24 Z M4,4 L25,4 L25,25 L4,25 L4,4 Z" id="Rectangle"></path>
                            <path d="M28,24 L47,24 L47,5 L28,5 L28,24 Z M27,4 L48,4 L48,25 L27,25 L27,4 Z" id="Rectangle"></path>
                            <path d="M51,24 L70,24 L70,5 L51,5 L51,24 Z M50,4 L71,4 L71,25 L50,25 L50,4 Z" id="Rectangle"></path>
                            <path d="M5,47 L24,47 L24,28 L5,28 L5,47 Z M4,27 L25,27 L25,48 L4,48 L4,27 Z" id="Rectangle"></path>
                            <path d="M28,47 L47,47 L47,28 L28,28 L28,47 Z M27,27 L48,27 L48,48 L27,48 L27,27 Z" id="Rectangle"></path>
                            <path d="M51,47 L70,47 L70,28 L51,28 L51,47 Z M50,27 L71,27 L71,48 L50,48 L50,27 Z" id="Rectangle"></path>
                            <path d="M5,70 L24,70 L24,51 L5,51 L5,70 Z M4,50 L25,50 L25,71 L4,71 L4,50 Z" id="Rectangle"></path>
                            <path d="M28,70 L47,70 L47,51 L28,51 L28,70 Z M27,50 L48,50 L48,71 L27,71 L27,50 Z" id="Rectangle"></path>
                            <path d="M51,70 L70,70 L70,51 L51,51 L51,70 Z M50,50 L71,50 L71,71 L50,71 L50,50 Z" id="Rectangle"></path>
                        </g>
                    </g>
                </g>
            </g>
        </g>
    </g>
</svg>