<?xml version="1.0" encoding="UTF-8"?>
<svg width="97px" height="86px" viewBox="0 0 97 86" version="1.1" xmlns="http://www.w3.org/2000/svg" xmlns:xlink="http://www.w3.org/1999/xlink">
    <!-- Generator: Sketch 43.2 (39069) - http://www.bohemiancoding.com/sketch -->
    <title>Page 1</title>
    <desc>Created with Sketch.</desc>
    <defs></defs>
    <g id="About" stroke="none" stroke-width="1" fill="none" fill-rule="evenodd">
        <g transform="translate(-846.000000, -2905.000000)" id="ADVANTAGE" fill="#FFFFFF">
            <g transform="translate(0.000000, 2615.000000)">
                <g id="Group-6" transform="translate(734.000000, 224.000000)">
                    <g id="Group-9" transform="translate(1.000000, 45.000000)">
                        <path d="M208.000986,70.1451733 C208.000986,71.1500933 207.197826,71.9636 206.187732,71.9687733 L196.326066,71.9687733 L196.326066,105.1764 C196.326066,106.170973 195.512559,106.979307 194.521866,106.98448 L163.198626,106.98448 C163.198626,106.98448 161.319412,105.953693 159.506159,103.827453 C157.692906,101.705093 157.015199,99.5840267 157.015199,99.5840267 C157.015199,99.5840267 159.506159,99.5374667 160.521426,99.3964933 C175.500812,97.2741333 179.203626,85.4634133 179.203626,76.2729867 C179.203626,61.9195733 160.648172,53.7056133 160.648172,53.7056133 C160.648172,61.1823733 150.159239,69.7714 150.159239,69.7714 C150.159239,69.7714 139.798346,77.1576267 139.798346,85.4672933 C139.798346,95.5320133 150.159239,98.85588 150.159239,98.85588 C149.350906,96.2692133 149.371599,90.6716667 150.826599,87.9634267 C152.175546,85.4724667 155.540799,82.33096 158.501239,79.1028 C161.456506,75.87464 162.127746,72.73184 162.127746,72.73184 C162.127746,72.73184 163.831066,76.34412 161.825106,79.7236 C159.106519,84.30588 153.933186,86.23036 153.119679,94.1520267 C152.453612,100.66008 156.065892,105.237187 157.767919,107 L124.485279,107 C123.484239,106.994827 122.675906,106.186493 122.670732,105.190627 L122.670732,71.9687733 L112.809066,71.9687733 C112.334412,71.9636 111.880452,71.77736 111.541599,71.44368 C110.823799,70.7362267 110.818626,69.58904 111.531252,68.8764133 L158.217999,22.1806133 C158.505119,21.8870267 158.884066,21.7007867 159.294052,21.65552 C159.845012,21.5947333 160.394679,21.7861467 160.783972,22.1806133 L184.771426,46.1680667 L184.771426,41.90912 C184.776599,40.9132533 185.584932,40.10492 186.584679,40.0997467 L194.285186,40.0997467 C195.284932,40.10492 196.088092,40.9132533 196.093266,41.90912 L196.093266,57.4899067 L207.475892,68.87124 C207.813452,69.2100933 207.995812,69.6653467 208.000986,70.1451733 Z" id="Page-1"></path>
                    </g>
                </g>
            </g>
        </g>
    </g>
</svg>