<?xml version="1.0" encoding="UTF-8"?>
<svg width="116px" height="75px" viewBox="0 0 116 75" version="1.1" xmlns="http://www.w3.org/2000/svg" xmlns:xlink="http://www.w3.org/1999/xlink">
    <!-- Generator: Sketch 43.2 (39069) - http://www.bohemiancoding.com/sketch -->
    <title>Group 6</title>
    <desc>Created with Sketch.</desc>
    <defs></defs>
    <g id="Home" stroke="none" stroke-width="1" fill="none" fill-rule="evenodd">
        <g id="Menu-(products)" transform="translate(-750.000000, -157.000000)" fill="#000000">
            <g id="NAV-MENU" transform="translate(0.000000, 119.000000)">
                <g id="TYPES" transform="translate(96.000000, 38.000000)">
                    <g id="Group-10" transform="translate(647.000000, 0.000000)">
                        <g id="Group-2" transform="translate(7.000000, 0.000000)">
                            <g id="Group-6">
                                <path d="M2,73 L113.909091,73 L113.909091,2 L2,2 L2,73 Z M0,0 L115.909091,0 L115.909091,75 L0,75 L0,0 Z" id="Rectangle" fill-rule="nonzero"></path>
                                <g id="Group-3" transform="translate(58.636364, 4.090909)" fill-rule="nonzero">
                                    <path d="M1,65.8181818 L52.1818182,65.8181818 L52.1818182,1 L1,1 L1,65.8181818 Z M-1.13686838e-13,0 L53.1818182,0 L53.1818182,66.8181818 L-1.13686838e-13,66.8181818 L-1.13686838e-13,0 Z" id="Rectangle"></path>
                                    <path d="M6.42671614,7.81818182 L6.42671614,59 L46.755102,59 L46.755102,7.81818182 L6.42671614,7.81818182 Z M5.42671614,6.81818182 L47.755102,6.81818182 L47.755102,60 L5.42671614,60 L5.42671614,6.81818182 Z" id="Rectangle"></path>
                                    <path d="M52.22822,0.668911062 L44.7899869,5.73573341 L45.3529672,6.56220375 L52.7912003,1.4953814 L52.22822,0.668911062 Z M42.3105759,7.42467419 L34.8723428,12.4914965 L35.4353231,13.3179669 L42.8735562,8.25114453 L42.3105759,7.42467419 Z M32.3929318,14.1804373 L24.9546987,19.2472597 L25.517679,20.07373 L32.955912,15.0069077 L32.3929318,14.1804373 Z M22.4752877,20.9362004 L15.0370546,26.0030228 L15.6000349,26.8294931 L23.0382679,21.7626708 L22.4752877,20.9362004 Z M12.5576436,27.6919636 L6.36000568,31.9137095 L6.92298594,32.7401798 L13.1206238,28.5184339 L12.5576436,27.6919636 Z" id="Line"></path>
                                    <path d="M5.82000198,32.8723815 L13.3544978,37.7949188 L13.9014464,36.9577526 L6.36695056,32.0352153 L5.82000198,32.8723815 Z M15.8659964,39.4357645 L23.4004922,44.3583018 L23.9474408,43.5211356 L16.412945,38.5985983 L15.8659964,39.4357645 Z M25.9119908,45.9991476 L33.4464866,50.9216848 L33.9934352,50.0845186 L26.4589394,45.1619814 L25.9119908,45.9991476 Z M35.9579852,52.5625306 L43.492481,57.4850678 L44.0394296,56.6479016 L36.5049338,51.7253644 L35.9579852,52.5625306 Z M46.0039796,59.1259136 L47.3575392,60.0102392 L47.9044878,59.173073 L46.5509282,58.2887474 L46.0039796,59.1259136 Z" id="Line"></path>
                                    <path d="M47.3179108,58.9190278 L44.0285206,50.5416826 L43.0977044,50.9071704 L46.3870946,59.2845156 L47.3179108,58.9190278 Z M42.9320571,47.7492343 L39.6426669,39.3718891 L38.7118508,39.7373769 L42.001241,48.1147221 L42.9320571,47.7492343 Z M38.5462035,36.5794407 L35.2568133,28.2020955 L34.3259972,28.5675833 L37.6153874,36.9449285 L38.5462035,36.5794407 Z M34.1603499,25.4096472 L30.8709597,17.032302 L29.9401435,17.3977898 L33.2295338,25.775135 L34.1603499,25.4096472 Z M29.7744963,14.2398536 L26.8735733,6.85184803 L25.9427571,7.21733584 L28.8436801,14.6053414 L29.7744963,14.2398536 Z" id="Line"></path>
                                    <path d="M25.7481621,6.17790471 L22.6863465,14.641077 L23.626699,14.9812787 L26.6885146,6.51810645 L25.7481621,6.17790471 Z M21.6657413,17.4621344 L18.6039257,25.9253067 L19.5442782,26.2655085 L22.6060938,17.8023362 L21.6657413,17.4621344 Z M17.5833206,28.7463642 L14.521505,37.2095365 L15.4618575,37.5497382 L18.523673,29.0865659 L17.5833206,28.7463642 Z M13.5008998,40.0305939 L10.4390842,48.4937662 L11.3794367,48.8339679 L14.4412523,40.3707956 L13.5008998,40.0305939 Z M9.41847901,51.3148236 L6.41445388,59.6182572 L7.35480636,59.9584589 L10.3588315,51.6550254 L9.41847901,51.3148236 Z" id="Line"></path>
                                </g>
                                <g id="Group-3" transform="translate(30.272727, 37.590909) scale(-1, 1) translate(-30.272727, -37.590909) translate(3.272727, 4.090909)" fill-rule="nonzero">
                                    <path d="M1,65.8181818 L52.1818182,65.8181818 L52.1818182,1 L1,1 L1,65.8181818 Z M0,0 L53.1818182,0 L53.1818182,66.8181818 L0,66.8181818 L0,0 Z" id="Rectangle"></path>
                                    <path d="M6.42671614,59 L46.755102,59 L46.755102,7.81818182 L6.42671614,7.81818182 L6.42671614,59 Z M5.42671614,6.81818182 L47.755102,6.81818182 L47.755102,60 L5.42671614,60 L5.42671614,6.81818182 Z" id="Rectangle"></path>
                                    <path d="M46.5315728,7.49494311 L38.8382694,12.165391 L39.3572081,13.0202025 L47.0505114,8.3497546 L46.5315728,7.49494311 Z M36.273835,13.722207 L28.5805316,18.3926548 L29.0994703,19.2474663 L36.7927736,14.5770184 L36.273835,13.722207 Z M26.0160972,19.9494708 L18.3227938,24.6199187 L18.8417324,25.4747302 L26.5350358,20.8042823 L26.0160972,19.9494708 Z M15.7583593,26.1767346 L8.06505598,30.8471825 L8.58399463,31.701994 L16.277298,27.0315461 L15.7583593,26.1767346 Z" id="Line"></path>
                                    <path d="M5.82000198,32.8723815 L13.3544978,37.7949188 L13.9014464,36.9577526 L6.36695056,32.0352153 L5.82000198,32.8723815 Z M15.8659964,39.4357645 L23.4004922,44.3583018 L23.9474408,43.5211356 L16.412945,38.5985983 L15.8659964,39.4357645 Z M25.9119908,45.9991476 L33.4464866,50.9216848 L33.9934352,50.0845186 L26.4589394,45.1619814 L25.9119908,45.9991476 Z M35.9579852,52.5625306 L43.492481,57.4850678 L44.0394296,56.6479016 L36.5049338,51.7253644 L35.9579852,52.5625306 Z M46.0039796,59.1259136 L47.3575392,60.0102392 L47.9044878,59.173073 L46.5509282,58.2887474 L46.0039796,59.1259136 Z" id="Line"></path>
                                </g>
                                <g id="Group-13" transform="translate(61.000000, 43.000000)">
                                    <circle id="Oval-3" cx="1.5" cy="1.5" r="1.5"></circle>
                                    <rect id="Rectangle-15" x="0" y="2" width="2" height="6" rx="1"></rect>
                                </g>
                                <g id="Group-11" transform="translate(53.500000, 47.000000) scale(-1, 1) translate(-53.500000, -47.000000) translate(52.000000, 43.000000)">
                                    <circle id="Oval-3" transform="translate(1.500000, 1.500000) scale(-1, 1) translate(-1.500000, -1.500000) " cx="1.5" cy="1.5" r="1.5"></circle>
                                    <rect id="Rectangle-15" transform="translate(1.000000, 5.000000) scale(-1, 1) translate(-1.000000, -5.000000) " x="0" y="2" width="2" height="6" rx="1"></rect>
                                </g>
                            </g>
                        </g>
                    </g>
                </g>
            </g>
        </g>
    </g>
</svg>