<?xml version="1.0" encoding="UTF-8"?>
<svg width="27px" height="27px" viewBox="0 0 27 27" version="1.1" xmlns="http://www.w3.org/2000/svg" xmlns:xlink="http://www.w3.org/1999/xlink">
    <!-- Generator: Sketch 43.2 (39069) - http://www.bohemiancoding.com/sketch -->
    <title>Page 1</title>
    <desc>Created with Sketch.</desc>
    <defs></defs>
    <g id="Home" stroke="none" stroke-width="1" fill="none" fill-rule="evenodd">
        <g id="Menu-(links)" transform="translate(-500.000000, -175.000000)" fill="#1B1B1B">
            <g id="Page-1" transform="translate(500.000000, 175.000000)">
                <path d="M13.5,26.7201818 C6.20901818,26.7201818 0.279818182,20.7890182 0.279818182,13.4980364 C0.279818182,6.20754545 6.21098182,0.277854545 13.5,0.277854545 C20.7909818,0.277854545 26.7221455,6.20901818 26.7221455,13.5 C26.7221455,20.7909818 20.7909818,26.7201818 13.5,26.7201818 Z M13.5,1.3824 C6.81921818,1.3824 1.38436364,6.81725455 1.38436364,13.4980364 C1.38436364,20.1788182 6.81921818,25.6156364 13.5,25.6156364 C20.1807818,25.6156364 25.6176,20.1807818 25.6176,13.5 C25.6176,6.81921818 20.1807818,1.3824 13.5,1.3824 Z" id="Fill-1"></path>
                <path d="M13.5,21.5847818 C12.9919091,21.5847818 12.5795455,21.1724182 12.5795455,20.6643273 L12.5795455,10.6311273 C12.5795455,10.1230364 12.9919091,9.71067273 13.5,9.71067273 C14.0080909,9.71067273 14.4204545,10.1230364 14.4204545,10.6311273 L14.4204545,20.6643273 C14.4204545,21.1724182 14.0080909,21.5847818 13.5,21.5847818 Z" id="Fill-2"></path>
                <path d="M14.5451455,7.37885455 C14.5451455,8.77107273 12.4568182,8.77107273 12.4568182,7.37885455 C12.4568182,5.98663636 14.5451455,5.98663636 14.5451455,7.37885455" id="Fill-3"></path>
            </g>
        </g>
    </g>
</svg>