<?xml version="1.0" encoding="UTF-8"?>
<svg width="85px" height="85px" viewBox="0 0 85 85" version="1.1" xmlns="http://www.w3.org/2000/svg" xmlns:xlink="http://www.w3.org/1999/xlink">
    <!-- Generator: Sketch 43.2 (39069) - http://www.bohemiancoding.com/sketch -->
    <title>Combined Shape</title>
    <desc>Created with Sketch.</desc>
    <defs></defs>
    <g id="About" stroke="none" stroke-width="1" fill="none" fill-rule="evenodd">
        <g transform="translate(-1205.000000, -2910.000000)" id="ADVANTAGE" fill="#FFFFFF">
            <g transform="translate(0.000000, 2615.000000)">
                <g id="Group-6" transform="translate(1087.000000, 224.000000)">
                    <g id="Group-10" transform="translate(1.000000, 45.000000)">
                        <g id="Page-1" transform="translate(117.000000, 26.000000)">
                            <path d="M68.7083333,16.2916667 C70.9523333,18.6512667 74.494,18.6512667 76.7346,16.2916667 L82.0510667,11.2143333 C82.6449333,10.625 83.7068667,10.8596 83.9414667,11.6869333 C85.3581333,16.7654 84.0616,22.5476667 80.0462,26.5630667 C75.7962,30.9320667 69.5402,32.1096 64.1081333,30.1036 C63.6344,29.9846 63.2808,29.9846 62.9260667,30.3393333 L30.3427333,62.9226667 C29.9891333,63.2762667 29.9891333,63.75 30.1081333,64.1036 C31.9985333,69.4166667 30.9366,75.6726667 26.5664667,80.0416667 C22.5510667,84.1726667 16.7699333,85.3536 11.6914667,83.9369333 C10.8641333,83.6989333 10.6295333,82.6358667 11.2177333,82.0476667 L16.4106667,76.8536 C18.6558,74.6096 18.6558,70.9523333 16.4106667,68.7083333 C14.1666667,66.4643333 10.5094,66.4643333 8.2654,68.7083333 L3.07246667,73.9058 C2.47973333,74.494 1.41666667,74.2594 1.18206667,73.4320667 C-0.2346,68.2346 0.942933333,62.5679333 5.07393333,58.4369333 C9.32393333,54.0679333 15.5788,52.8904 21.0108667,54.8964 C21.4846,55.0154 21.8393333,55.0154 22.1929333,54.6606667 L54.6606667,22.1974667 C55.0154,21.8427333 55.0154,21.369 54.8964,21.0154 C53.006,15.7023333 54.0679333,9.44746667 58.4369333,5.07733333 C62.4523333,1.06306667 68.2346,-0.2346 73.3130667,1.18206667 C74.1404,1.41666667 74.494,2.3596 73.9012667,2.95233333 L68.7083333,8.1464 C66.4643333,10.3904 66.4643333,14.0476667 68.7083333,16.2916667 Z M30.1036,40.1404 C29.5154,40.7297333 28.4523333,40.7297333 27.8641333,40.1404 L3.07246667,15.3487333 C-0.3536,11.9260667 -0.2346,6.2594 3.30706667,2.95233333 C6.72973333,-0.2346 12.3964,0.119 15.5833333,3.30706667 L40.1404,27.8596 C40.7297333,28.4523333 40.7297333,29.5154 40.1404,30.1036 L30.1036,40.1404 Z M80.1606667,73.0773333 L83.9335333,78.9876667 C84.4072667,79.696 84.2871333,80.7590667 83.6989333,81.3472667 L81.1002,83.946 C80.5108667,84.5353333 79.4489333,84.6543333 78.7406,84.1806 L72.9538,80.2853333 C72.7192,80.0507333 72.4846,79.8116 72.3656,79.577 L70.1204667,75.2068667 C70.0014667,75.0878667 69.8858667,74.8532667 69.7668667,74.7331333 L48.5168667,53.4831333 C47.9275333,52.8904 47.9275333,51.8273333 48.5168667,51.2391333 L51.1156,48.6404 C51.7083333,48.0510667 52.7702667,48.0510667 53.3596,48.6404 L74.6096,69.8904 C74.7297333,70.0094 74.9643333,70.125 75.0833333,70.244 L79.4523333,72.4891333 C79.6869333,72.6036 79.9260667,72.8427333 80.1606667,73.0773333 Z" id="Combined-Shape"></path>
                        </g>
                    </g>
                </g>
            </g>
        </g>
    </g>
</svg>