<?xml version="1.0" encoding="UTF-8"?>
<svg width="39px" height="23px" viewBox="0 0 39 23" version="1.1" xmlns="http://www.w3.org/2000/svg" xmlns:xlink="http://www.w3.org/1999/xlink">
    <!-- Generator: Sketch 43.2 (39069) - http://www.bohemiancoding.com/sketch -->
    <title>Page 1</title>
    <desc>Created with Sketch.</desc>
    <defs></defs>
    <g id="Home" stroke="none" stroke-width="1" fill="none" fill-rule="evenodd">
        <g id="Menu-(links)" transform="translate(-494.000000, -297.000000)" fill="#1B1B1B">
            <g id="Page-1" transform="translate(494.000000, 297.000000)">
                <path d="M7.50873333,7.2036 C7.50873333,6.18546667 8.33162222,5.36257778 9.34975556,5.36257778 L28.9718222,5.36257778 C29.9899556,5.36257778 30.8123333,6.18546667 30.8123333,7.2036 L30.8123333,10.2743556 L32.0405333,10.2743556 L32.0405333,7.2036 C32.0405333,5.51028889 30.6625778,4.13284444 28.9697778,4.13284444 L24.0661778,4.13284444 L24.0661778,2.29182222 C24.0661778,1.27368889 23.2438,0.451311111 22.2251556,0.451311111 L16.0959111,0.451311111 C15.0777778,0.451311111 14.2554,1.27368889 14.2554,2.29182222 L14.2554,4.13284444 L9.3518,4.13284444 C7.65848889,4.13284444 6.28104444,5.51028889 6.28104444,7.2036 L6.28104444,13.3348889 L7.50873333,13.3348889 L7.50873333,7.2036 Z M15.4830889,2.29795556 C15.4830889,1.96062222 15.7606222,1.68308889 16.0979556,1.68308889 L22.2374222,1.68308889 C22.5747556,1.68308889 22.8522889,1.96062222 22.8522889,2.29795556 L22.8522889,4.13897778 L15.4928,4.13897778 L15.4928,2.29795556 L15.4830889,2.29795556 Z" id="Fill-1"></path>
                <path d="M30.8246,19.4743556 C30.8246,20.4924889 30.0017111,21.3148667 28.9835778,21.3148667 L9.3518,21.3148667 C8.33366667,21.3148667 7.51077778,20.4924889 7.51077778,19.4743556 L7.51077778,15.7907778 L6.28104444,15.7907778 L6.28104444,19.4743556 C6.28104444,21.1671556 7.65848889,22.5446 9.3518,22.5446 L28.9815333,22.5446 C30.6748444,22.5446 32.0522889,21.1671556 32.0522889,19.4743556 L32.0522889,18.8589778 L30.8246,18.8589778 L30.8246,19.4743556 Z" id="Fill-2"></path>
                <path d="M36.3410222,10.8851333 L21.0076889,10.8851333 C20.2067778,10.8851333 19.5321111,11.4023778 19.2786,12.1128222 L16.7107778,12.1128222 L16.7107778,13.9538444 L5.05335556,13.9538444 L5.05335556,11.9993556 L0.149755556,12.8176444 L0.149755556,16.3136444 L5.05335556,17.1304 L5.05335556,15.1754 L16.7107778,15.1754 L16.7107778,17.0164222 L19.2786,17.0164222 C19.5341556,17.7273778 20.2067778,18.2441111 21.0076889,18.2441111 L36.3410222,18.2441111 C37.3591556,18.2441111 38.1815333,17.4217333 38.1815333,16.4036 L38.1815333,12.7200222 C38.1835778,11.7095556 37.3591556,10.8851333 36.3410222,10.8851333 Z M3.83333333,15.6849778 L1.37744444,15.2735333 L1.37744444,13.8577556 L3.83333333,13.4468222 L3.83333333,15.6849778 Z M17.9389778,13.3410222 L19.1666667,13.3410222 L19.1666667,15.7964 L17.9389778,15.7964 L17.9389778,13.3410222 Z M36.9558889,16.4036 C36.9558889,16.7409333 36.6783556,17.0184667 36.3410222,17.0184667 L21.0076889,17.0184667 C20.6698444,17.0184667 20.3923111,16.7409333 20.3923111,16.4036 L20.3923111,12.7200222 C20.3923111,12.3826889 20.6698444,12.1051556 21.0076889,12.1051556 L36.3410222,12.1051556 C36.6783556,12.1051556 36.9558889,12.3826889 36.9558889,12.7200222 L36.9558889,16.4036 Z" id="Fill-3"></path>
                <polygon id="Fill-4" points="22.2374222 15.1835778 35.1230444 15.1835778 35.1230444 13.9558889 22.2374222 13.9558889"></polygon>
                <polygon id="Fill-5" points="18.5518 7.82408889 19.7794889 7.82408889 19.7794889 6.5964 18.5518 6.5964"></polygon>
                <polygon id="Fill-6" points="21.0076889 7.82408889 22.2353778 7.82408889 22.2353778 6.5964 21.0076889 6.5964"></polygon>
                <polygon id="Fill-7" points="16.0959111 7.82408889 17.3236 7.82408889 17.3236 6.5964 16.0959111 6.5964"></polygon>
            </g>
        </g>
    </g>
</svg>