<?xml version="1.0" encoding="UTF-8"?>
<svg width="75px" height="77px" viewBox="0 0 75 77" version="1.1" xmlns="http://www.w3.org/2000/svg" xmlns:xlink="http://www.w3.org/1999/xlink">
    <!-- Generator: Sketch 43.2 (39069) - http://www.bohemiancoding.com/sketch -->
    <title>Group 2</title>
    <desc>Created with Sketch.</desc>
    <defs></defs>
    <g id="Home" stroke="none" stroke-width="1" fill="none" fill-rule="evenodd">
        <g id="Menu-(products)" transform="translate(-447.000000, -319.000000)" fill-rule="nonzero" fill="#000000">
            <g id="NAV-MENU" transform="translate(0.000000, 119.000000)">
                <g id="TYPES" transform="translate(96.000000, 38.000000)">
                    <g id="Group-10" transform="translate(259.000000, 162.000000)">
                        <g id="Group-12" transform="translate(92.000000, 0.000000)">
                            <g id="Group-2" transform="translate(37.500000, 38.500000) scale(1, -1) translate(-37.500000, -38.500000) ">
                                <path d="M2,74 L73,74 L73,3 L2,3 L2,74 Z M0,1 L75,1 L75,76 L0,76 L0,1 Z" id="Rectangle"></path>
                                <path d="M5.09090909,70.9090909 L69.9090909,70.9090909 L69.9090909,6.09090909 L5.09090909,6.09090909 L5.09090909,70.9090909 Z M4.09090909,5.09090909 L70.9090909,5.09090909 L70.9090909,71.9090909 L4.09090909,71.9090909 L4.09090909,5.09090909 Z" id="Rectangle"></path>
                                <path d="M11.9090909,64.0909091 L63.0909091,64.0909091 L63.0909091,12.9090909 L11.9090909,12.9090909 L11.9090909,64.0909091 Z M10.9090909,11.9090909 L64.0909091,11.9090909 L64.0909091,65.0909091 L10.9090909,65.0909091 L10.9090909,11.9090909 Z" id="Rectangle"></path>
                                <path d="M74.6732501,75.2161812 L70.5596303,67.2112995 L69.670199,67.6683683 L73.7838188,75.6732501 L74.6732501,75.2161812 Z M69.1884237,64.5430055 L65.0748039,56.5381238 L64.1853726,56.9951926 L68.2989924,65.0000744 L69.1884237,64.5430055 Z M63.7035973,53.8698298 L59.5899775,45.8649481 L58.7005462,46.3220169 L62.814166,54.3268987 L63.7035973,53.8698298 Z M58.2187709,43.1966541 L54.1051511,35.1917724 L53.2157198,35.6488412 L57.3293396,43.653723 L58.2187709,43.1966541 Z M52.7339445,32.5234784 L48.6203247,24.5185967 L47.7308934,24.9756655 L51.8445132,32.9805473 L52.7339445,32.5234784 Z M47.2491181,21.8503028 L43.1354983,13.845421 L42.246067,14.3024898 L46.3596868,22.3073716 L47.2491181,21.8503028 Z M41.7642917,11.1771271 L37.6506719,3.17224529 L36.7612406,3.62931416 L40.8748604,11.6341959 L41.7642917,11.1771271 Z" id="Line"></path>
                                <path d="M36.7726069,2.33045361 L32.7932274,10.4029092 L33.6901669,10.8450624 L37.6695464,2.77260689 L36.7726069,2.33045361 Z M31.4667675,13.0937277 L27.487388,21.1661832 L28.3843276,21.6083365 L32.3637071,13.535881 L31.4667675,13.0937277 Z M26.1609282,23.8570018 L22.1815487,31.9294573 L23.0784882,32.3716106 L27.0578677,24.299155 L26.1609282,23.8570018 Z M20.8550889,34.6202759 L16.8757094,42.6927314 L17.7726489,43.1348847 L21.7520284,35.0624291 L20.8550889,34.6202759 Z M15.5492495,45.3835499 L11.56987,53.4560055 L12.4668095,53.8981588 L16.446189,45.8257032 L15.5492495,45.3835499 Z M10.2434102,56.146824 L6.26403071,64.2192796 L7.16097021,64.6614329 L11.1403497,56.5889773 L10.2434102,56.146824 Z M4.93757087,66.9100981 L1.33045361,74.2273931 L2.22739311,74.6695464 L5.83451038,67.3522514 L4.93757087,66.9100981 Z" id="Line"></path>
                                <polygon id="Line" points="0.292893219 1.41421356 12.0113578 13.1326781 12.7184646 12.4255713 1 0.707106781"></polygon>
                                <polygon id="Line" points="74 0.707106781 62.2815354 12.4255713 62.9886422 13.1326781 74.7071068 1.41421356"></polygon>
                                <polygon id="Line" points="1 76.1440359 12.7184646 64.4255713 12.0113578 63.7184646 0.292893219 75.4369291"></polygon>
                                <polygon id="Line" points="74.7071068 75.4369291 62.9886422 63.7184646 62.2815354 64.4255713 74 76.1440359"></polygon>
                            </g>
                        </g>
                    </g>
                </g>
            </g>
        </g>
    </g>
</svg>