<?xml version="1.0" encoding="UTF-8"?>
<svg width="32px" height="24px" viewBox="0 0 32 24" version="1.1" xmlns="http://www.w3.org/2000/svg" xmlns:xlink="http://www.w3.org/1999/xlink">
    <!-- Generator: Sketch 43.2 (39069) - http://www.bohemiancoding.com/sketch -->
    <title>Page 1</title>
    <desc>Created with Sketch.</desc>
    <defs></defs>
    <g id="Home" stroke="none" stroke-width="1" fill="none" fill-rule="evenodd">
        <g id="Menu-(links)" transform="translate(-28.000000, -356.000000)" fill="#1B1B1B">
            <path d="M54.87356,378.61428 L49.4045067,378.61428 L49.4045067,371.32308 L43.9047467,371.32308 L43.9047467,378.61428 L32.9973467,378.61428 L32.9973467,371.32308 L31.6776133,371.32308 L31.6776133,379.96668 L45.22448,379.96668 L45.22448,372.67548 L48.0521067,372.67548 L48.0521067,380 L56.2233467,380 L56.2233467,360.63716 L59.1457067,359.506893 L58.6733467,358.248573 L56.1599733,359.190027 L56.1599733,356.079507 L54.84024,356.079507 L54.84024,359.693093 L49.2156933,361.82884 L34.44448,359.659773 L34.2556667,360.979507 L36.1718933,361.2624 L36.1718933,366.79548 L28,369.906653 L28.47236,371.16432 L54.8095333,361.106907 L54.8095333,378.61428 L54.87356,378.61428 Z M37.5242933,366.325733 L37.5242933,361.484533 L46.67096,362.836933 L37.5242933,366.325733 Z" id="Page-1"></path>
        </g>
    </g>
</svg>