<?xml version="1.0" encoding="UTF-8"?>
<svg width="28px" height="28px" viewBox="0 0 28 28" version="1.1" xmlns="http://www.w3.org/2000/svg" xmlns:xlink="http://www.w3.org/1999/xlink">
    <!-- Generator: Sketch 43.2 (39069) - http://www.bohemiancoding.com/sketch -->
    <title>Page 1</title>
    <desc>Created with Sketch.</desc>
    <defs></defs>
    <g id="Home" stroke="none" stroke-width="1" fill="none" fill-rule="evenodd">
        <g id="Menu-(links)" transform="translate(-500.000000, -236.000000)" fill="#1B1B1B">
            <path d="M513.72,236.56 C506.151133,236.56 500,242.711133 500,250.28 C500,257.848867 506.151133,264.000001 513.72,264.000001 C521.288867,264.000001 527.440001,257.848867 527.440001,250.28 C527.440001,242.711133 521.288867,236.56 513.72,236.56 Z M513.72,238.084444 C517.729797,238.084444 521.288867,240.009818 523.509983,242.991123 L522.235547,243.908331 C520.284258,241.308136 517.209454,239.608889 513.72,239.608889 C510.230547,239.608889 507.155742,241.308136 505.204453,243.908331 L503.930018,242.991123 C506.151133,240.009818 509.710203,238.084444 513.72,238.084444 Z M513.72,241.133333 C516.975197,241.133333 519.839629,242.8026 521.461129,245.349439 C521.695386,245.718354 522.189814,245.815919 522.545009,245.563877 L524.343346,244.277754 C525.345922,246.050175 525.915556,248.094455 525.915556,250.28 C525.915556,257.024651 520.464651,262.475556 513.72,262.475556 C506.97535,262.475556 501.524444,257.024651 501.524444,250.28 C501.524444,248.094455 502.094079,246.050175 503.096655,244.277754 L504.894991,245.563877 C505.250187,245.815919 505.744615,245.718354 505.978871,245.349439 C507.600372,242.8026 510.464803,241.133333 513.72,241.133333 Z M513.636664,242.64609 C513.243357,242.689283 512.949648,243.025169 512.957778,243.42 L512.957778,248.541117 C512.287022,248.836859 511.814445,249.499993 511.814445,250.28 C511.814445,251.331867 512.668134,252.185556 513.72,252.185556 C514.771867,252.185556 515.625556,251.331867 515.625556,250.28 C515.625556,249.499993 515.152978,248.836859 514.482223,248.541117 L514.482223,243.42 C514.492385,242.959618 514.095014,242.596292 513.636664,242.64609 Z" id="Page-1"></path>
        </g>
    </g>
</svg>