<?xml version="1.0" encoding="UTF-8"?>
<svg width="143px" height="92px" viewBox="0 0 143 92" version="1.1" xmlns="http://www.w3.org/2000/svg" xmlns:xlink="http://www.w3.org/1999/xlink">
    <!-- Generator: Sketch 43.2 (39069) - http://www.bohemiancoding.com/sketch -->
    <title>Combined Shape</title>
    <desc>Created with Sketch.</desc>
    <defs></defs>
    <g id="About" stroke="none" stroke-width="1" fill="none" fill-rule="evenodd">
        <g transform="translate(-468.000000, -2906.000000)" id="ADVANTAGE" fill="#FFFFFF">
            <g transform="translate(0.000000, 2615.000000)">
                <g id="Group-6" transform="translate(381.000000, 224.000000)">
                    <g id="Group-8" transform="translate(1.000000, 45.000000)">
                        <g id="Page-1" transform="translate(86.000000, 22.000000)">
                            <path d="M65.0243333,13.3055556 L0.576333333,50.8263333 L70.0867778,91.5158889 L133.420111,53.3596667 L65.0243333,13.3055556 Z M62.9617778,62.7013333 L59.6388889,64.6076667 L58.2117778,63.816 C54.8888889,61.9181111 49.5034444,61.9181111 46.1805556,63.816 L44.9096667,63.1805556 C48.868,60.8055556 55.3596667,60.8055556 59.318,63.1805556 L61.2137778,62.0764444 L56.3075556,59.2222222 L58.0471111,58.1181111 C61.37,56.2202222 61.37,53.0535556 58.0471111,50.9931111 L59.318,50.3576667 C63.2763333,52.7326667 63.2763333,56.5347778 59.318,58.9097778 L58.0471111,58.2743333 L75.943,68.7222222 L110.140889,48.7743333 L81.6408889,32.1493333 L78.6304444,33.8888889 L76.8908889,32.941 L79.9013333,31.2014444 L62.3263333,20.9097778 L48.868,28.8264444 L66.443,39.1181111 L69.4513333,37.3764444 L71.193,38.4826667 C74.6721111,40.5431111 80.2137778,40.5431111 83.5451111,38.4826667 L84.816,39.2743333 C80.7014444,41.6493333 74.0451111,41.6493333 69.9305556,39.2743333 L71.2014444,38.4826667 L47.6076667,52.4181111 L50.6181111,54.1597778 L48.8764444,55.2638889 L44.1264444,52.5764444 L64.8681111,40.3868889 L47.2931111,30.0952222 L13.0867778,49.7222222 L47.7638889,69.9931111 L50.7743333,68.2514444 L52.2014444,69.0431111 L47.4514444,71.7326667 L9.92011111,49.8784444 L62.9617778,18.8472222 L114.107667,48.7743333 L76.5763333,70.618 L62.9617778,62.7013333 Z M81.9617778,52.2534444 L94.316,45.1284444 L91.3055556,44.6513333 L98.9097778,42.7534444 L95.7431111,47.191 L94.9514444,45.4514444 L82.5972222,52.5764444 L88.1388889,55.7431111 L88.9305556,54.0014444 L92.0972222,58.439 L84.493,56.5411111 L87.5034444,56.064 L81.9617778,52.8973333 L70.7222222,59.3784444 L73.7326667,59.8576667 L66.1284444,61.7534444 L69.2951111,57.318 L70.0867778,59.0575556 L81.3263333,52.568 L69.1388889,45.4514444 L68.3472222,47.191 L65.1805556,42.7534444 L72.7847778,44.6513333 L69.7743333,45.1284444 L81.9617778,52.2534444 Z M30.0347778,52.4096667 L22.4305556,54.3075556 L25.5972222,49.87 L26.3888889,51.6116667 L44.5972222,41.0054444 L41.2743333,39.1096667 L40.4826667,40.8492222 L37.316,36.4116667 L44.9181111,38.3095556 L41.9097778,38.6388889 L45.2326667,40.5346667 L50.7743333,37.2117778 L47.7638889,36.7346667 L55.3681111,34.8367778 L52.2014444,39.2743333 L51.4097778,37.5347778 L45.8681111,40.8576667 L49.5118889,43.0764444 L50.3035556,41.3347778 L53.4702222,45.7723333 L45.8681111,43.8744444 L48.8764444,43.3973333 L45.2326667,41.1785556 L27.0243333,51.7847778 L30.0347778,52.4096667 Z M81.3263333,73.6284444 L119.013889,51.4617778 L119.805556,51.941 L82.118,74.1076667 L81.3263333,73.6284444 Z M85.7638889,76.3264444 L123.607667,54.1597778 L124.399333,54.6368889 L86.7117778,76.8035556 L85.7638889,76.3264444 Z M132.784667,49.4097778 C132.784667,50.9931111 133.420111,52.0972222 134.368,52.7326667 L65.493,12.3576667 C65.0243333,12.2014444 64.7013333,12.0346667 64.3888889,11.7222222 C63.7618889,11.0867778 63.2847778,9.98266667 63.2847778,8.71177778 C63.2847778,5.54511111 65.493,1.90977778 68.3472222,0.482666667 C69.7743333,-0.152777778 71.0431111,-0.152777778 71.9931111,0.482666667 L141.015889,40.8576667 C140.701333,40.7014444 140.224222,40.7014444 139.909667,40.7014444 C139.276333,40.7014444 138.640889,40.8661111 137.849222,41.1785556 C135.159667,42.5972222 132.784667,46.2431111 132.784667,49.4097778 Z M139.909667,41.3263333 C141.336778,41.3263333 142.284667,42.5972222 142.284667,44.3367778 C142.284667,47.3472222 140.068,50.6701111 137.534667,51.941 C136.901333,52.2618889 136.274333,52.4181111 135.795111,52.4181111 C134.368,52.4181111 133.420111,51.3055556 133.420111,49.4097778 C133.420111,46.3993333 135.638889,43.0764444 138.170111,41.8055556 C138.805556,41.4846667 139.432556,41.3263333 139.909667,41.3263333 Z" id="Combined-Shape"></path>
                        </g>
                    </g>
                </g>
            </g>
        </g>
    </g>
</svg>