<?xml version="1.0" encoding="UTF-8"?>
<svg width="27px" height="27px" viewBox="0 0 27 27" version="1.1" xmlns="http://www.w3.org/2000/svg" xmlns:xlink="http://www.w3.org/1999/xlink">
    <!-- Generator: Sketch 43.2 (39069) - http://www.bohemiancoding.com/sketch -->
    <title>Page 1</title>
    <desc>Created with Sketch.</desc>
    <defs></defs>
    <g id="Home" stroke="none" stroke-width="1" fill="none" fill-rule="evenodd">
        <g id="Menu-(links)" transform="translate(-30.000000, -176.000000)" fill="#1B1B1B">
            <g id="Page-1" transform="translate(30.000000, 176.000000)">
                <path d="M13.5701053,26.8223684 C6.21710526,26.8223684 0.247736842,20.853 0.247736842,13.5 C0.247736842,6.147 6.21710526,0.177631579 13.5701053,0.177631579 C20.9235789,0.177631579 26.8924737,6.147 26.8924737,13.5 C26.8924737,20.853 20.9254737,26.8223684 13.5701053,26.8223684 Z M13.5701053,1.27847368 C6.82010526,1.27847368 1.34905263,6.75 1.34905263,13.5 C1.34905263,20.25 6.82010526,25.7215263 13.5701053,25.7215263 C20.3201053,25.7215263 25.7916316,20.25 25.7916316,13.5 C25.7565789,6.75 20.2850526,1.27847368 13.5701053,1.27847368 Z" id="Fill-1"></path>
                <path d="M14.103,16.8399474 L13.0021579,16.8399474 L13.0021579,15.9517895 C13.0021579,14.5657895 13.7477368,13.2522632 14.9210526,12.5767895 C15.8793158,12.0088421 16.4122105,10.9430526 16.3070526,9.84173684 C16.1644737,8.56326316 15.1337368,7.53252632 13.8552632,7.39042105 C13.0372105,7.31984211 12.2916316,7.53252632 11.6886316,8.06542105 C11.0851579,8.59831579 10.7654211,9.34436842 10.7654211,10.1268947 L9.66410526,10.1268947 C9.66410526,9.02605263 10.1268947,7.96026316 10.9430526,7.24973684 C11.7606316,6.53921053 12.8614737,6.14842105 13.9627895,6.291 C15.7391053,6.50368421 17.1952105,7.92473684 17.3728421,9.70105263 C17.5504737,11.2646842 16.7693684,12.7563158 15.4188947,13.5018947 C14.5657895,13.9997368 14.0328947,14.8878947 14.0328947,15.9181579 L14.103,16.8399474 Z" id="Fill-2"></path>
                <path d="M14.6733158,19.6095789 C14.6733158,21.0789474 12.4692632,21.0789474 12.4692632,19.6095789 C12.4692632,18.1425789 14.6733158,18.1425789 14.6733158,19.6095789" id="Fill-3"></path>
            </g>
        </g>
    </g>
</svg>