<?xml version="1.0" encoding="UTF-8"?>
<svg width="66px" height="75px" viewBox="0 0 66 75" version="1.1" xmlns="http://www.w3.org/2000/svg" xmlns:xlink="http://www.w3.org/1999/xlink">
    <!-- Generator: Sketch 44.1 (41455) - http://www.bohemiancoding.com/sketch -->
    <title>Page 1</title>
    <desc>Created with Sketch.</desc>
    <defs></defs>
    <g id="Category" stroke="none" stroke-width="1" fill="none" fill-rule="evenodd">
        <g transform="translate(-1017.000000, -667.000000)" id="Page-1" fill="#FB5028">
            <g transform="translate(1017.000000, 667.000000)">
                <path d="M19,18.906 L25.254,18.906 L25.254,23.16 C27.07,23.938 28.598,25.359 29.383,27.309 L23.582,29.645 C23.332,29.023 22.523,28.578 21.672,28.801 C20.816,29.027 20.469,29.637 20.586,30.27 C20.699,30.898 21.344,31.449 22.234,31.391 L22.453,31.391 C25.977,31.57 29.172,33.812 29.82,37.375 C30.457,40.875 28.422,44.254 25.246,45.617 L25.246,49.863 L18.992,49.863 L18.992,45.605 C17.172,44.828 15.645,43.402 14.855,41.449 L20.656,39.117 C20.906,39.738 21.719,40.188 22.574,39.965 C23.43,39.738 23.777,39.113 23.66,38.48 C23.547,37.855 22.898,37.309 22.012,37.363 L21.793,37.363 C18.27,37.184 15.066,34.941 14.422,31.379 C13.785,27.875 15.82,24.5 19.004,23.137 L19,18.906 Z" id="Fill-1"></path>
                <path d="M15.863,0.016 C7.305,0.016 0.25,6.918 0.25,15.41 L0.25,65.793 L9.621,75 L15.863,68.867 L22.098,75 L28.34,68.867 L34.582,75 L43.945,65.793 L43.98,25.004 L65.871,25.004 L65.871,15.656 C65.898,12.168 64.699,8.508 62.363,5.465 C60.09,2.504 56.504,0.164 52.121,0.023 C40.324,-0.027 27.941,0.023 15.859,0.023 L15.863,0.016 Z M51.68,6.246 L51.75,6.246 C54.184,6.246 55.98,7.41 57.406,9.266 C58.832,11.125 59.641,13.699 59.625,15.605 L59.625,18.742 L43.996,18.742 L43.996,15.387 C44,12.613 44.828,10.277 46.133,8.719 C47.426,7.176 49.125,6.266 51.684,6.242 L51.68,6.246 Z M15.863,6.285 L40.484,6.285 C38.773,8.941 37.738,12.043 37.734,15.414 L37.699,63.195 L34.586,66.258 L28.344,60.121 L22.102,66.258 L15.867,60.121 L9.625,66.258 L6.512,63.195 L6.512,15.43 C6.613,10.258 11.109,6.238 15.871,6.285 L15.863,6.285 Z" id="Fill-2"></path>
            </g>
        </g>
    </g>
</svg>