<?xml version="1.0" encoding="UTF-8"?>
<svg width="30px" height="23px" viewBox="0 0 30 23" version="1.1" xmlns="http://www.w3.org/2000/svg" xmlns:xlink="http://www.w3.org/1999/xlink">
    <!-- Generator: Sketch 43.2 (39069) - http://www.bohemiancoding.com/sketch -->
    <title>Page 1</title>
    <desc>Created with Sketch.</desc>
    <defs></defs>
    <g id="Home" stroke="none" stroke-width="1" fill="none" fill-rule="evenodd">
        <g id="Menu-(links)" transform="translate(-30.000000, -236.000000)" fill="#1B1B1B">
            <g id="Page-1" transform="translate(30.000000, 236.000000)">
                <path d="M27.1658163,11.2653061 L15.5484694,0.967877551 L14.7857143,0.293367347 L14.0229592,0.967877551 L11.8520408,2.875 L11.8520408,2.81632653 L7.2755102,2.81632653 L7.2755102,6.92346939 L2.40561224,11.2653061 L0.117346939,13.2893061 L4.54742857,13.2893061 L4.54742857,22.7066327 L25.024,22.7066327 L25.024,13.2893061 L29.4540816,13.2893061 L27.1658163,11.2653061 Z M23.8505306,12.1158367 L23.8505306,21.5331633 L5.72089796,21.5331633 L5.72089796,12.1158367 L3.19746939,12.1158367 L8.47808163,7.45153061 L8.47808163,3.98979592 L10.7372449,3.98979592 L10.7372449,5.48620408 L14.7857143,1.84844898 L26.4030612,12.1454082 L23.8505306,12.1454082 L23.8505306,12.1158367 Z" id="Fill-1"></path>
                <path d="M11.8229388,18.6581633 C11.7055918,18.6581633 11.5882449,18.5994898 11.5,18.5117143 C11.353551,18.3352245 11.353551,18.0423265 11.529102,17.8954082 C12.0280612,17.4555918 12.3214286,16.8688571 12.3214286,16.252551 C12.3214286,15.6362449 12.0576327,15.0495102 11.5586735,14.5801224 C10.8545918,13.9642857 10.502551,13.1428571 10.502551,12.2627551 C10.502551,11.3826531 10.9132653,10.5612245 11.5882449,9.9744898 C11.7637959,9.82804082 12.0576327,9.82804082 12.2040816,10.0035918 C12.3505306,10.1800816 12.3505306,10.4729796 12.1749796,10.619898 C11.6760204,11.0597143 11.3826531,11.646449 11.3826531,12.2627551 C11.3826531,12.8790612 11.646449,13.4657959 12.1454082,13.9351837 C12.8494898,14.5510204 13.2015306,15.372449 13.2015306,16.252551 C13.2015306,17.1326531 12.7908163,17.9540816 12.1158367,18.5408163 C12.0280612,18.6290612 11.9107143,18.6581633 11.8229388,18.6581633 Z" id="Fill-2"></path>
                <path d="M14.6096939,18.6872653 C14.4923469,18.6872653 14.375,18.6290612 14.2872245,18.5408163 C14.1403061,18.3647959 14.1403061,18.0714286 14.3163265,17.9249796 C14.8148163,17.4846939 15.1086531,16.8979592 15.1086531,16.2821224 C15.1086531,15.6658163 14.8443878,15.0790816 14.3454286,14.6096939 C13.6413469,13.9933878 13.2893061,13.1719592 13.2893061,12.2923265 C13.2893061,11.4117551 13.7004898,10.5903265 14.375,10.0035918 C14.5510204,9.85714286 14.8443878,9.85714286 14.9913061,10.0331633 C15.1377551,10.2091837 15.1377551,10.502551 14.9617347,10.6494694 C14.4627755,11.0892857 14.1698776,11.6760204 14.1698776,12.2923265 C14.1698776,12.9081633 14.4336735,13.494898 14.9321633,13.9642857 C15.6362449,14.5801224 15.9882857,15.401551 15.9882857,16.2821224 C15.9882857,17.1617551 15.5780408,17.9831837 14.9030612,18.5699184 C14.8148163,18.6581633 14.6974694,18.6872653 14.6096939,18.6872653 Z" id="Fill-3"></path>
                <path d="M17.6902857,18.7168367 C17.5729388,18.7168367 17.4555918,18.6581633 17.3673469,18.5699184 C17.220898,18.3943673 17.220898,18.1005306 17.396449,17.9540816 C17.8954082,17.5137959 18.1887755,16.9270612 18.1887755,16.3112245 C18.1887755,15.6953878 17.9249796,15.1086531 17.4260204,14.6392653 C16.7219388,14.0229592 16.369898,13.2015306 16.369898,12.3214286 C16.369898,11.4413265 16.7806122,10.619898 17.4555918,10.0331633 C17.6311429,9.8862449 17.9249796,9.8862449 18.0714286,10.0627347 C18.2178776,10.2382857 18.2178776,10.5321224 18.0423265,10.6785714 C17.5433673,11.1188571 17.25,11.7055918 17.25,12.3214286 C17.25,12.9372653 17.5137959,13.524 18.0127551,13.9933878 C18.7168367,14.6096939 19.0688776,15.4311224 19.0688776,16.3112245 C19.0688776,17.1913265 18.6581633,18.0127551 17.9831837,18.5994898 C17.8954082,18.6872653 17.8076327,18.7168367 17.6902857,18.7168367 Z" id="Fill-4"></path>
            </g>
        </g>
    </g>
</svg>