<?xml version="1.0" encoding="UTF-8"?>
<svg width="25px" height="26px" viewBox="0 0 25 26" version="1.1" xmlns="http://www.w3.org/2000/svg" xmlns:xlink="http://www.w3.org/1999/xlink">
    <!-- Generator: Sketch 43.2 (39069) - http://www.bohemiancoding.com/sketch -->
    <title>Page 1</title>
    <desc>Created with Sketch.</desc>
    <defs></defs>
    <g id="Home" stroke="none" stroke-width="1" fill="none" fill-rule="evenodd">
        <g id="Menu-(links)" transform="translate(-31.000000, -298.000000)" fill="#1B1B1B">
            <path d="M53.7943333,298.83836 L33.2056667,298.83836 C31.9896667,298.83836 31,299.828027 31,301.044027 L31,315.749693 C31,316.966027 31.9896667,317.955693 33.2056667,317.955693 L33.9413333,317.955693 L33.9413333,323.988027 L40.836,317.955693 L53.7943333,317.955693 C55.0103333,317.955693 56,316.966027 56,315.749693 L56,301.044027 C56,299.828027 55.0103333,298.83836 53.7943333,298.83836 Z M54.53,315.749693 C54.53,316.154693 54.2006667,316.48536 53.7943333,316.48536 L40.2826667,316.48536 L35.4113333,320.74736 L35.4113333,316.48536 L33.2056667,316.48536 C32.7993333,316.48536 32.47,316.154693 32.47,315.749693 L32.47,301.044027 C32.47,300.639027 32.7993333,300.30836 33.2056667,300.30836 L53.7943333,300.30836 C54.2006667,300.30836 54.53,300.639027 54.53,301.044027 L54.53,315.749693 Z M35.4113333,303.249693 L51.5886667,303.249693 L51.5886667,304.720027 L35.4113333,304.720027 L35.4113333,303.249693 Z M35.4113333,306.19136 L51.5886667,306.19136 L51.5886667,307.66136 L35.4113333,307.66136 L35.4113333,306.19136 Z M35.4113333,309.132693 L44.2343333,309.132693 L44.2343333,310.602693 L35.4113333,310.602693 L35.4113333,309.132693 Z" id="Page-1"></path>
        </g>
    </g>
</svg>