<?xml version="1.0" encoding="UTF-8"?>
<svg width="75px" height="75px" viewBox="0 0 75 75" version="1.1" xmlns="http://www.w3.org/2000/svg" xmlns:xlink="http://www.w3.org/1999/xlink">
    <!-- Generator: Sketch 43.2 (39069) - http://www.bohemiancoding.com/sketch -->
    <title>Group 2</title>
    <desc>Created with Sketch.</desc>
    <defs></defs>
    <g id="Home" stroke="none" stroke-width="1" fill="none" fill-rule="evenodd">
        <g id="Menu-(products)" transform="translate(-131.000000, -320.000000)" fill-rule="nonzero" fill="#000000">
            <g id="NAV-MENU" transform="translate(0.000000, 119.000000)">
                <g id="TYPES" transform="translate(96.000000, 38.000000)">
                    <g id="Group-8" transform="translate(0.000000, 163.000000)">
                        <g id="Group-9">
                            <g id="Group-2" transform="translate(35.000000, 0.000000)">
                                <path d="M2,73 L73,73 L73,2 L2,2 L2,73 Z M0,0 L75,0 L75,75 L0,75 L0,0 Z" id="Rectangle"></path>
                                <path d="M5.09090909,69.9090909 L69.9090909,69.9090909 L69.9090909,5.09090909 L5.09090909,5.09090909 L5.09090909,69.9090909 Z M4.09090909,4.09090909 L70.9090909,4.09090909 L70.9090909,70.9090909 L4.09090909,70.9090909 L4.09090909,4.09090909 Z" id="Rectangle"></path>
                                <path d="M11.9090909,63.0909091 L63.0909091,63.0909091 L63.0909091,11.9090909 L11.9090909,11.9090909 L11.9090909,63.0909091 Z M10.9090909,10.9090909 L64.0909091,10.9090909 L64.0909091,64.0909091 L10.9090909,64.0909091 L10.9090909,10.9090909 Z" id="Rectangle"></path>
                                <path d="M74.6732501,74.2161812 L70.5596303,66.2112995 L69.670199,66.6683683 L73.7838188,74.6732501 L74.6732501,74.2161812 Z M69.1884237,63.5430055 L65.0748039,55.5381238 L64.1853726,55.9951926 L68.2989924,64.0000744 L69.1884237,63.5430055 Z M63.7035973,52.8698298 L59.5899775,44.8649481 L58.7005462,45.3220169 L62.814166,53.3268987 L63.7035973,52.8698298 Z M58.2187709,42.1966541 L54.1051511,34.1917724 L53.2157198,34.6488412 L57.3293396,42.653723 L58.2187709,42.1966541 Z M52.7339445,31.5234784 L48.6203247,23.5185967 L47.7308934,23.9756655 L51.8445132,31.9805473 L52.7339445,31.5234784 Z M47.2491181,20.8503028 L43.1354983,12.845421 L42.246067,13.3024898 L46.3596868,21.3073716 L47.2491181,20.8503028 Z M41.7642917,10.1771271 L37.6506719,2.17224529 L36.7612406,2.62931416 L40.8748604,10.6341959 L41.7642917,10.1771271 Z" id="Line"></path>
                                <path d="M36.7726069,1.33045361 L32.7932274,9.40290917 L33.6901669,9.84506245 L37.6695464,1.77260689 L36.7726069,1.33045361 Z M31.4667675,12.0937277 L27.487388,20.1661832 L28.3843276,20.6083365 L32.3637071,12.535881 L31.4667675,12.0937277 Z M26.1609282,22.8570018 L22.1815487,30.9294573 L23.0784882,31.3716106 L27.0578677,23.299155 L26.1609282,22.8570018 Z M20.8550889,33.6202759 L16.8757094,41.6927314 L17.7726489,42.1348847 L21.7520284,34.0624291 L20.8550889,33.6202759 Z M15.5492495,44.3835499 L11.56987,52.4560055 L12.4668095,52.8981588 L16.446189,44.8257032 L15.5492495,44.3835499 Z M10.2434102,55.146824 L6.26403071,63.2192796 L7.16097021,63.6614329 L11.1403497,55.5889773 L10.2434102,55.146824 Z M4.93757087,65.9100981 L1.33045361,73.2273931 L2.22739311,73.6695464 L5.83451038,66.3522514 L4.93757087,65.9100981 Z" id="Line"></path>
                            </g>
                        </g>
                    </g>
                </g>
            </g>
        </g>
    </g>
</svg>