<?xml version="1.0" encoding="UTF-8"?>
<svg width="75px" height="75px" viewBox="0 0 75 75" version="1.1" xmlns="http://www.w3.org/2000/svg" xmlns:xlink="http://www.w3.org/1999/xlink">
    <!-- Generator: Sketch 43.2 (39069) - http://www.bohemiancoding.com/sketch -->
    <title>Group 5</title>
    <desc>Created with Sketch.</desc>
    <defs></defs>
    <g id="Home" stroke="none" stroke-width="1" fill="none" fill-rule="evenodd">
        <g id="Menu-(products)" transform="translate(-447.000000, -157.000000)" fill="#000000">
            <g id="NAV-MENU" transform="translate(0.000000, 119.000000)">
                <g id="TYPES" transform="translate(96.000000, 38.000000)">
                    <g id="Group-10" transform="translate(310.000000, 0.000000)">
                        <g id="Group-5" transform="translate(41.000000, 0.000000)">
                            <g id="Group-2" fill-rule="nonzero">
                                <path d="M2,73 L73,73 L73,2 L2,2 L2,73 Z M0,0 L75,0 L75,75 L0,75 L0,0 Z" id="Rectangle"></path>
                                <path d="M5.09090909,69.9090909 L69.9090909,69.9090909 L69.9090909,5.09090909 L5.09090909,5.09090909 L5.09090909,69.9090909 Z M4.09090909,4.09090909 L70.9090909,4.09090909 L70.9090909,70.9090909 L4.09090909,70.9090909 L4.09090909,4.09090909 Z" id="Rectangle"></path>
                                <g id="Group" transform="translate(7.818182, 1.727273)">
                                    <polygon id="Line" points="0.545454545 0.5 0.545454545 2.86363636 1.54545455 2.86363636 1.54545455 0.5"></polygon>
                                    <polygon id="Line" points="57.8181818 0.5 57.8181818 2.86363636 58.8181818 2.86363636 58.8181818 0.5"></polygon>
                                    <polygon id="Line" points="0.545454545 68.6818182 0.545454545 71.0454545 1.54545455 71.0454545 1.54545455 68.6818182"></polygon>
                                    <polygon id="Line" points="57.8181818 68.6818182 57.8181818 71.0454545 58.8181818 71.0454545 58.8181818 68.6818182"></polygon>
                                </g>
                                <g id="Group" transform="translate(37.272727, 37.318182) rotate(90.000000) translate(-37.272727, -37.318182) translate(7.772727, 1.318182)">
                                    <polygon id="Line" points="0.545454545 0.5 0.545454545 2.86363636 1.54545455 2.86363636 1.54545455 0.5"></polygon>
                                    <polygon id="Line" points="57.8181818 0.5 57.8181818 2.86363636 58.8181818 2.86363636 58.8181818 0.5"></polygon>
                                    <polygon id="Line" points="0.545454545 68.6818182 0.545454545 71.0454545 1.54545455 71.0454545 1.54545455 68.6818182"></polygon>
                                    <polygon id="Line" points="57.8181818 68.6818182 57.8181818 71.0454545 58.8181818 71.0454545 58.8181818 68.6818182"></polygon>
                                </g>
                                <path d="M11.9090909,63.0909091 L63.0909091,63.0909091 L63.0909091,11.9090909 L11.9090909,11.9090909 L11.9090909,63.0909091 Z M10.9090909,10.9090909 L64.0909091,10.9090909 L64.0909091,64.0909091 L10.9090909,64.0909091 L10.9090909,10.9090909 Z" id="Rectangle"></path>
                                <path d="M69.7466959,4.77667975 L61.8347322,9.06629864 L62.3113565,9.94540572 L70.2233202,5.65578683 L69.7466959,4.77667975 Z M59.197411,10.4961716 L51.2854473,14.7857905 L51.7620716,15.6648976 L59.6740353,11.3752787 L59.197411,10.4961716 Z M48.648126,16.2156634 L40.7361623,20.5052823 L41.2127866,21.3843894 L49.1247503,17.0947705 L48.648126,16.2156634 Z M38.0988411,21.9351553 L30.1868773,26.2247742 L30.6635017,27.1038812 L38.5754654,22.8142624 L38.0988411,21.9351553 Z M27.5495561,27.6546471 L19.6375924,31.944266 L20.1142167,32.8233731 L28.0261804,28.5337542 L27.5495561,27.6546471 Z M17.0002712,33.374139 L12.2766798,35.9351223 L12.7533041,36.8142293 L17.4768955,34.253246 L17.0002712,33.374139 Z" id="Line"></path>
                                <path d="M11.5984425,37.0311139 L19.5833937,41.1832885 L20.0447465,40.2960717 L12.0597952,36.143897 L11.5984425,37.0311139 Z M22.2450441,42.5673467 L30.2299953,46.7195213 L30.6913481,45.8323045 L22.7063969,41.6801299 L22.2450441,42.5673467 Z M32.8916457,48.1035795 L40.8765969,52.2557542 L41.3379497,51.3685374 L33.3529985,47.2163627 L32.8916457,48.1035795 Z M43.5382473,53.6398124 L51.5231986,57.791987 L51.9845513,56.9047702 L43.9996001,52.7525956 L43.5382473,53.6398124 Z M54.184849,59.1760452 L62.1698002,63.3282198 L62.6311529,62.441003 L54.6462017,58.2888284 L54.184849,59.1760452 Z" id="Line"></path>
                                <path d="M63.3968878,62.9544636 L59.4150697,54.8832106 L58.5182638,55.3256348 L62.5000819,63.3968878 L63.3968878,62.9544636 Z M58.087797,52.1927929 L54.1059788,44.12154 L53.2091729,44.5639642 L57.1909911,52.6352172 L58.087797,52.1927929 Z M52.7787061,41.4311223 L48.796888,33.3598694 L47.9000821,33.8022936 L51.8819002,41.8735466 L52.7787061,41.4311223 Z M47.4696153,30.6694517 L43.4877971,22.5981987 L42.5909913,23.040623 L46.5728094,31.1118759 L47.4696153,30.6694517 Z M42.1605244,19.9077811 L38.1787063,11.8365281 L37.2819004,12.2789524 L41.2637186,20.3502053 L42.1605244,19.9077811 Z" id="Line"></path>
                                <path d="M36.5699001,10.2470062 L32.8456736,18.4403045 L33.75604,18.8541074 L37.4802665,10.6608091 L36.5699001,10.2470062 Z M31.6042647,21.1714039 L27.8800382,29.3647022 L28.7904047,29.7785052 L32.5146312,21.5852069 L31.6042647,21.1714039 Z M26.6386294,32.0958017 L22.9144029,40.2891 L23.8247694,40.7029029 L27.5489959,32.5096046 L26.6386294,32.0958017 Z M21.6729941,43.0201994 L17.9487676,51.2134977 L18.859134,51.6273006 L22.5833605,43.4340023 L21.6729941,43.0201994 Z M16.7073587,53.9445971 L12.9831322,62.1378954 L13.8934987,62.5516984 L17.6177252,54.3584001 L16.7073587,53.9445971 Z" id="Line"></path>
                            </g>
                            <circle id="Oval-3" cx="8.5" cy="42.5" r="1.5"></circle>
                            <rect id="Rectangle-15" x="7" y="43" width="2" height="6" rx="1"></rect>
                        </g>
                    </g>
                </g>
            </g>
        </g>
    </g>
</svg>