<?xml version="1.0" encoding="UTF-8"?>
<svg width="26px" height="26px" viewBox="0 0 26 26" version="1.1" xmlns="http://www.w3.org/2000/svg" xmlns:xlink="http://www.w3.org/1999/xlink">
    <!-- Generator: Sketch 43.2 (39069) - http://www.bohemiancoding.com/sketch -->
    <title>Page 1</title>
    <desc>Created with Sketch.</desc>
    <defs></defs>
    <g id="Home" stroke="none" stroke-width="1" fill="none" fill-rule="evenodd">
        <g id="Menu-(links)" transform="translate(-500.000000, -356.000000)" fill="#1B1B1B">
            <path d="M512.76,356.48 C505.71996,356.48 500,362.19996 500,369.24 C500,376.28004 505.71996,382 512.76,382 C519.80004,382 525.52,376.28004 525.52,369.24 C525.52,362.19996 519.80004,356.48 512.76,356.48 Z M512.76,357.64 C513.252227,357.64 513.7344,357.6806 514.21,357.73976 L514.21,362.307067 C513.7402,362.208853 513.258413,362.153173 512.76,362.153173 C512.261587,362.153173 511.7798,362.208853 511.31,362.307067 L511.31,357.73976 C511.7856,357.6806 512.267773,357.64 512.76,357.64 Z M510.15,357.938893 L510.15,362.651587 C508.3404,363.371947 506.901227,364.8204 506.18048,366.63 L501.458893,366.63 C502.446827,362.3148 505.8348,358.92992 510.15,357.938893 Z M515.37,357.938893 C519.6852,358.92992 523.07472,362.313253 524.061107,366.63 L519.33952,366.63 C518.618773,364.8204 517.1796,363.371947 515.37,362.651587 L515.37,357.938893 Z M512.76,363.313173 C516.04048,363.313173 518.686827,365.95952 518.686827,369.24 C518.686827,372.52048 516.04048,375.166827 512.76,375.166827 C509.47952,375.166827 506.833173,372.52048 506.833173,369.24 C506.833173,365.95952 509.47952,363.313173 512.76,363.313173 Z M501.25048,367.79 L505.827067,367.79 C505.728853,368.2598 505.673173,368.741587 505.673173,369.24 C505.673173,369.73532 505.721507,370.223293 505.818173,370.69 L501.25048,370.69 C501.191707,370.2144 501.16,369.732227 501.16,369.24 C501.16,368.747773 501.191707,368.2656 501.25048,367.79 Z M519.692933,367.79 L524.26024,367.79 C524.3194,368.2656 524.36,368.747773 524.36,369.24 C524.36,369.732227 524.3194,370.2144 524.26024,370.69 L519.701827,370.69 C519.798493,370.223293 519.846827,369.73532 519.846827,369.24 C519.846827,368.741587 519.791147,368.2598 519.692933,367.79 Z M501.458893,371.85 L506.18048,371.85 C506.901227,373.661147 508.338853,375.108053 510.15,375.828413 L510.15,380.541107 C505.836347,379.55008 502.44992,376.163653 501.458893,371.85 Z M519.33952,371.85 L524.061107,371.85 C523.071627,376.163653 519.682107,379.55008 515.37,380.541107 L515.37,375.828413 C517.181147,375.108053 518.618773,373.661147 519.33952,371.85 Z M511.31,376.172933 C511.7798,376.271147 512.261587,376.326827 512.76,376.326827 C513.258413,376.326827 513.7402,376.271147 514.21,376.172933 L514.21,380.74024 C513.7344,380.7994 513.252227,380.84 512.76,380.84 C512.267773,380.84 511.7856,380.7994 511.31,380.74024 L511.31,376.172933 Z" id="Page-1"></path>
        </g>
    </g>
</svg>