<?xml version="1.0" encoding="UTF-8"?>
<svg width="68px" height="68px" viewBox="0 0 68 68" version="1.1" xmlns="http://www.w3.org/2000/svg" xmlns:xlink="http://www.w3.org/1999/xlink">
    <!-- Generator: Sketch 43.2 (39069) - http://www.bohemiancoding.com/sketch -->
    <title>Page 1</title>
    <desc>Created with Sketch.</desc>
    <defs></defs>
    <g id="Home" stroke="none" stroke-width="1" fill="none" fill-rule="evenodd">
        <g id="Menu-(products)" transform="translate(-1171.000000, -175.000000)" fill="#FFFFFF">
            <g id="NAV-MENU" transform="translate(0.000000, 119.000000)">
                <g id="WARRANTY" transform="translate(970.000000, 2.000000)">
                    <path d="M263.668,95.5 C264.367,92.871 268.5,90.602 268.5,87.75 C268.5,84.898 264.367,82.629 263.668,80 C262.941,77.281 265.363,73.254 263.984,70.871 C262.586,68.457 257.875,68.547 255.914,66.586 C253.953,64.625 254.047,59.914 251.629,58.516 C249.246,57.137 245.219,59.559 242.5,58.832 C239.871,58.133 237.602,54 234.75,54 C231.898,54 229.629,58.133 227,58.832 C224.281,59.559 220.254,57.137 217.871,58.516 C215.457,59.914 215.547,64.625 213.586,66.586 C211.625,68.547 206.914,68.453 205.516,70.871 C204.137,73.254 206.559,77.281 205.832,80 C205.133,82.629 201,84.898 201,87.75 C201,90.602 205.133,92.871 205.832,95.5 C206.559,98.219 204.137,102.246 205.516,104.629 C206.914,107.043 211.625,106.953 213.586,108.914 C215.547,110.875 215.453,115.586 217.871,116.984 C220.254,118.363 224.281,115.941 227,116.668 C229.629,117.367 231.898,121.5 234.75,121.5 C237.602,121.5 239.871,117.367 242.5,116.668 C245.219,115.941 249.246,118.363 251.629,116.984 C254.043,115.586 253.953,110.875 255.914,108.914 C257.875,106.953 262.586,107.047 263.984,104.629 C265.359,102.246 262.941,98.219 263.668,95.5 Z M230.387,99.234 L220.805,89.59 L225.457,84.906 L230.52,90 L244.172,76.266 L248.691,80.812 L230.387,99.234 Z" id="Page-1"></path>
                </g>
            </g>
        </g>
    </g>
</svg>