<?xml version="1.0" encoding="UTF-8"?>
<svg width="660px" height="380px" viewBox="0 0 660 380" version="1.1" xmlns="http://www.w3.org/2000/svg" xmlns:xlink="http://www.w3.org/1999/xlink">
    <!-- Generator: Sketch 53.2 (72643) - https://sketchapp.com -->
    <title>usa-outline</title>
    <desc>Created with Sketch.</desc>
    <g id="Page-1" stroke="none" stroke-width="1" fill="none" fill-rule="evenodd">
        <g id="usa-outline" transform="translate(1.000000, 2.000000)">
            <g id="Group" opacity="0.1" stroke="#FFFFFF" stroke-width="3">
                <path d="M194.156896,81.2933291 C184.101433,80.5956317 163.990506,78.1078199 163.990506,78.1078199 L157.977057,138.190758 C157.977057,138.190758 180.315639,140.352189 191.48493,141.1598 C208.013951,142.354953 241.071994,144.199052 241.071994,144.199052 L242.712025,83.5699052 C242.712025,83.5699052 210.341939,82.4163268 194.156896,81.2933291 Z" id="Wyoming-(WY)"></path>
                <polygon id="Wisconsin-(WI)" points="375.007911 55.1670616 374.461234 56.8056872 373.36788 56.8056872 373.914557 62.2677725 373.914557 65.5450237 369.541139 68.2760664 368.994462 69.9146919 367.901108 71.5533175 367.901108 73.1919431 369.541139 73.7381517 370.634494 75.3767773 370.087816 77.5616114 369.541139 79.200237 370.087816 80.292654 369.541139 80.8388626 370.087816 81.9312796 369.541139 85.2085308 372.274525 87.3933649 374.461234 87.3933649 376.101266 89.0319905 378.287975 89.5781991 380.474684 91.7630332 382.114715 93.9478673 383.754747 95.0402844 385.941456 95.0402844 388.128165 97.2251185 388.674842 98.8637441 388.674842 103.233412 389.221519 103.233412 389.768196 104.872038 391.408228 105.964455 390.314873 107.603081 390.861551 111.42654 392.501582 114.703791 395.781646 114.703791 396.875 117.434834 429.675633 114.157583 429.128956 111.972749 429.675633 110.880332 429.675633 109.241706 428.582278 108.695498 428.035601 106.510664 427.488924 103.233412 427.488924 101.048578 428.035601 99.4099526 428.035601 97.771327 429.128956 95.5864929 428.035601 94.4940758 428.582278 91.2168246 429.128956 89.5781991 430.768987 88.485782 429.675633 86.8471564 429.675633 83.5699052 431.315665 80.8388626 430.768987 79.200237 432.409019 77.5616114 432.955696 74.8305687 433.502373 72.6457346 434.595728 71.007109 433.502373 71.007109 432.955696 72.6457346 431.862342 74.2843602 431.315665 74.2843602 431.315665 75.9229858 430.22231 77.0154028 430.768987 78.1078199 430.22231 78.6540284 429.675633 78.6540284 428.035601 79.200237 426.942247 81.3850711 425.848892 82.4774882 424.755538 84.1161137 423.662184 83.5699052 423.662184 81.9312796 424.755538 79.200237 425.848892 77.5616114 427.488924 76.4691943 427.488924 75.3767773 425.848892 74.2843602 426.942247 71.007109 426.39557 71.007109 424.755538 71.5533175 424.208861 71.5533175 425.302215 69.3684834 424.208861 66.6374408 422.568829 65.5450237 420.928797 65.5450237 420.928797 63.9063981 419.288766 63.3601896 415.462025 62.813981 413.275316 63.3601896 411.088608 62.2677725 403.981804 60.6291469 397.968354 59.5367299 396.328323 57.3518957 394.688291 56.8056872 390.861551 55.7132701 388.674842 56.8056872 388.674842 55.7132701 389.768196 51.8898104 388.674842 51.3436019 385.941456 52.9822275 384.301424 53.528436 380.474684 55.7132701 377.19462 56.2594787"></polygon>
                <polygon id="West-Virginia-(WV)" points="508.943829 179.156398 508.943829 179.702607 509.490506 179.702607 509.490506 180.795024 510.037184 180.795024 510.037184 181.887441 510.583861 181.887441 511.130538 182.979858 512.77057 182.979858 513.317247 183.526066 514.957278 184.072275 516.59731 182.433649 517.143987 181.341232 519.330696 182.433649 520.424051 181.341232 522.610759 181.341232 523.157437 180.248815 522.610759 179.156398 523.704114 178.61019 524.797468 179.156398 526.984177 177.517773 527.530854 178.063981 529.717563 176.425355 529.170886 175.879147 530.264241 174.78673 530.264241 174.240521 529.170886 174.240521 529.170886 173.148104 529.717563 171.509479 531.904272 168.232227 532.450949 166.047393 531.904272 165.501185 533.544304 163.862559 532.997627 163.316351 534.090981 161.677725 534.090981 159.492891 534.637658 158.946682 535.731013 158.946682 536.824367 160.0391 539.011076 160.0391 540.10443 158.946682 540.10443 157.308057 540.651108 156.761848 540.651108 155.123223 541.197785 154.030806 541.744462 153.484597 543.384494 154.030806 543.931171 151.845972 545.024525 151.845972 545.024525 151.299763 546.11788 150.207346 546.11788 149.114929 547.211234 147.476303 547.211234 145.837678 547.757911 144.745261 547.211234 143.652844 547.757911 143.106635 554.318038 146.383886 554.864715 143.106635 554.864715 142.014218 553.771361 141.468009 553.224684 140.375592 552.678006 140.375592 553.224684 139.283175 551.037975 139.829384 548.851266 138.736967 548.304589 139.283175 547.757911 140.375592 546.11788 140.375592 545.571203 142.014218 544.477848 142.560427 542.837816 142.560427 541.744462 140.921801 541.744462 142.560427 540.10443 144.199052 538.464399 144.199052 537.917722 145.291469 536.824367 146.930095 534.637658 149.114929 532.997627 141.468009 520.970728 143.652844 518.237342 129.99763 516.59731 131.090047 518.237342 132.182464 517.690665 133.82109 518.237342 135.459716 517.690665 137.64455 517.690665 140.375592 517.143987 143.652844 517.143987 145.837678 514.410601 147.476303 514.410601 149.114929 512.223892 151.299763 511.130538 150.207346 509.490506 151.299763 509.490506 152.39218 508.397152 152.938389 507.850475 155.123223 507.303797 156.21564 507.850475 156.761848 507.850475 157.854265 506.75712 158.946682 506.210443 158.946682 506.210443 157.854265 505.117089 157.308057 504.023734 158.400474 503.477057 160.0391 503.477057 161.131517 504.023734 163.862559 502.93038 164.408768 502.93038 166.047393 499.650316 167.686019 500.196994 169.324645 499.650316 171.509479 501.837025 173.694313 502.383703 174.78673 504.570411 177.517773 507.303797 179.156398"></polygon>
                <polygon id="Washington-D.C.-(DC)" points="564.704905 149.114929 565.798259 148.022512 564.158228 146.383886 563.611551 147.476303 564.158228 148.022512"></polygon>
                <path d="M100.575949,55.1670616 L100.575949,53.528436 L101.122627,52.9822275 L101.122627,51.8898104 L100.029272,49.7049763 L106.042722,12.0165877 C106.042722,12.0165877 75.0727912,6.6554239 59.5878261,3.70173775 C55.02796,2.83196418 45.9082278,0.546208531 45.9082278,0.546208531 L45.3615506,1.63862559 L45.9082278,4.36966825 L47.5482595,4.36966825 L47.5482595,6.55450237 L47.0015823,8.73933649 L45.9082278,8.73933649 L45.3615506,7.64691943 L44.8148734,6.55450237 L43.1748418,4.36966825 L42.0814873,4.91587678 L43.1748418,5.46208531 L44.2681962,6.55450237 L43.1748418,7.1007109 L41.5348101,6.00829384 L39.8947785,5.46208531 L40.4414557,7.1007109 L43.1748418,8.19312796 L44.2681962,7.1007109 L45.3615506,8.73933649 L43.721519,10.9241706 L44.2681962,12.5627962 L45.3615506,15.8400474 L46.4549051,16.3862559 L45.9082278,14.7476303 L44.8148734,12.0165877 L45.3615506,10.3779621 L46.4549051,10.3779621 L47.5482595,10.9241706 L47.5482595,13.1090047 L47.5482595,14.7476303 L48.6416139,15.2938389 L47.5482595,16.9324645 L45.9082278,18.57109 L45.9082278,20.2097156 L45.9082278,21.8483412 L45.3615506,24.5793839 L44.2681962,26.2180095 L43.1748418,25.6718009 L41.5348101,27.3104265 L40.9881329,27.8566351 L39.3481013,27.3104265 L38.2547468,27.8566351 L36.6147152,27.3104265 L37.7080696,25.6718009 L39.3481013,24.0331754 L40.4414557,24.5793839 L41.5348101,23.4869668 L42.6281646,25.1255924 L43.1748418,21.8483412 L42.0814873,21.3021327 L42.6281646,19.1172986 C42.0496334,19.1172986 44.2681962,19.1172986 44.2681962,19.1172986 L44.8148734,17.478673 L40.9881329,19.6635071 L39.8947785,20.2097156 L37.7080696,21.8483412 L38.8014241,22.9407583 L39.8947785,22.9407583 L38.8014241,23.4869668 L36.068038,23.4869668 L36.6147152,22.3945498 L38.8014241,20.2097156 L40.4414557,18.57109 L40.4414557,16.9324645 L41.5348101,16.9324645 L41.5348101,18.0248815 L43.1748418,16.3862559 L42.0814873,13.1090047 L42.0814873,14.7476303 L40.4414557,13.1090047 L39.8947785,13.6552133 L38.2547468,12.0165877 L36.6147152,12.0165877 L30.6012658,9.83175355 L28.414557,8.73933649 L27.3212025,7.64691943 L23.494462,5.46208531 L22.4011076,8.19312796 L22.4011076,11.4703791 L24.0411392,13.6552133 L24.5878165,15.8400474 L24.0411392,20.2097156 L25.1344937,21.8483412 L24.5878165,25.1255924 L26.2278481,25.1255924 L26.2278481,26.2180095 L28.414557,27.3104265 L25.6811709,27.8566351 L25.1344937,28.9490521 L24.5878165,28.4028436 L24.5878165,30.0414692 L26.7745253,30.0414692 L27.8678797,31.6800948 L26.2278481,31.6800948 L25.6811709,33.8649289 L26.2278481,35.5035545 L24.5878165,35.5035545 L24.0411392,34.4111374 L23.494462,36.5959716 L24.5878165,36.5959716 L25.6811709,37.1421801 L27.8678797,37.1421801 L28.414557,37.6883886 L30.0545886,37.6883886 L30.6012658,39.3270142 L31.6946203,39.8732227 L33.3346519,39.8732227 L34.9746835,41.5118483 L36.068038,44.242891 L35.5213608,48.0663507 L35.5213608,49.1587678 L39.3481013,50.2511848 L40.9881329,51.3436019 L44.8148734,50.2511848 L46.4549051,49.7049763 L49.7349684,50.2511848 L52.4683544,51.3436019 L53.0150316,52.9822275 L55.2017405,52.436019 L55.7484177,52.9822275 L59.5751582,52.436019 L62.3085443,52.9822275 L65.0419304,52.436019 L69.9620253,51.8898104 L71.602057,51.3436019 L76.5221519,52.436019 L78.1621835,51.3436019 L100.575949,55.1670616 Z" id="Washington-(WA)"></path>
                <path d="M583.838608,180.795024 L583.838608,179.702607 L584.385285,179.702607 L584.385285,176.971564 L583.29193,175.332938 L579.46519,175.332938 L580.011867,176.971564 L578.371835,176.425355 L577.278481,177.517773 L577.278481,175.879147 L574.545095,174.78673 L574.545095,173.148104 L572.905063,173.148104 L571.265032,173.148104 L570.171677,172.055687 L566.344937,172.601896 L566.344937,171.509479 L570.718354,170.96327 L571.265032,172.055687 L571.811709,170.417062 L572.358386,172.055687 L574.545095,172.055687 L575.091772,172.055687 L575.091772,173.148104 L578.371835,174.78673 L579.46519,173.694313 L578.371835,173.148104 L578.371835,172.055687 L577.278481,171.509479 L575.638449,171.509479 L571.811709,168.232227 L571.811709,167.13981 L575.638449,170.417062 L577.278481,170.417062 L576.185127,169.324645 L576.731804,167.686019 L578.918513,169.324645 L578.371835,167.686019 L576.731804,166.593602 L574.545095,166.047393 L573.451741,164.408768 L571.811709,163.862559 L569.625,162.223934 L567.984968,160.0391 L566.891614,160.0391 L565.251582,159.492891 L565.798259,158.946682 L567.984968,158.946682 L571.811709,162.770142 L572.905063,162.770142 L575.091772,164.954976 L575.091772,163.862559 L576.731804,164.954976 L576.731804,162.770142 L576.185127,161.677725 L577.278481,161.131517 L575.638449,160.585308 L573.451741,160.0391 L572.905063,158.946682 L571.265032,158.400474 L570.171677,158.946682 L567.984968,158.400474 L566.344937,156.761848 L566.344937,155.669431 L564.704905,157.308057 L562.518196,157.308057 L562.518196,156.21564 L562.518196,155.669431 L562.518196,152.39218 L563.611551,151.299763 L564.704905,150.753555 L564.704905,149.114929 L564.158228,148.022512 L563.611551,147.476303 L561.971519,147.476303 L561.424842,146.383886 L559.238133,146.383886 L558.144778,145.291469 L558.691456,143.652844 L557.051424,143.106635 L554.864715,143.106635 L554.318038,146.383886 L547.757911,143.106635 L547.211234,143.652844 L547.757911,144.745261 L547.211234,145.837678 L547.211234,147.476303 L546.11788,149.114929 L546.11788,150.207346 L545.024525,151.299763 L545.024525,151.845972 L543.931171,151.845972 L543.384494,154.030806 L541.744462,153.484597 L541.197785,154.030806 L540.651108,155.123223 L540.651108,156.761848 L540.10443,157.308057 L540.10443,158.946682 L539.011076,160.0391 L536.824367,160.0391 L535.731013,158.946682 L534.637658,158.946682 L534.090981,159.492891 L534.090981,161.677725 L532.997627,163.316351 L533.544304,163.862559 L531.904272,165.501185 L532.450949,166.047393 L531.904272,168.232227 L529.717563,171.509479 L529.170886,173.148104 L529.170886,174.240521 L530.264241,174.240521 L530.264241,174.78673 L529.170886,175.879147 L529.717563,176.425355 L527.530854,178.063981 L526.984177,177.517773 L524.797468,179.156398 L523.704114,178.61019 L522.610759,179.156398 L523.157437,180.248815 L522.610759,181.341232 L520.424051,181.341232 L519.330696,182.433649 L517.143987,181.341232 L516.59731,182.433649 L514.957278,184.072275 L513.317247,183.526066 L512.77057,182.979858 L511.130538,182.979858 L510.583861,181.887441 L510.037184,181.887441 L510.037184,180.795024 L509.490506,180.795024 L509.490506,179.702607 L508.943829,179.702607 L505.117089,184.618483 L501.290348,186.803318 L501.290348,188.441943 L500.196994,189.53436 L500.196994,190.626777 L497.463608,191.719194 L496.91693,193.35782 L490.903481,196.635071 L514.957278,192.811611 L514.957278,193.35782 L583.838608,180.795024 Z M584.385285,157.854265 L584.385285,158.946682 L583.838608,159.492891 L584.385285,160.585308 L583.29193,162.223934 L582.745253,163.862559 L582.745253,166.047393 L582.198576,168.232227 L582.745253,170.417062 L583.29193,170.96327 L583.838608,169.324645 L583.838608,166.047393 L584.385285,164.408768 L586.025316,164.954976 L586.025316,161.677725 L587.118671,159.492891 L586.571994,158.400474 L586.571994,156.761848 L584.385285,157.854265 Z" id="Virginia-(VA)"></path>
                <polygon id="Vermont-(VT)" points="586.025316 48.6125592 605.705696 43.1504739 606.252373 43.6966825 606.799051 44.7890995 605.705696 46.9739336 607.345728 49.1587678 606.799051 49.7049763 606.799051 50.7973934 605.159019 53.528436 604.612342 54.0746445 603.518987 54.0746445 602.97231 55.1670616 603.518987 56.8056872 603.518987 58.4443128 603.518987 60.6291469 602.97231 61.1753555 602.97231 63.3601896 602.425633 64.4526066 602.425633 66.0912322 601.878956 66.6374408 602.425633 69.9146919 602.97231 70.4609005 602.425633 72.6457346 602.97231 73.7381517 602.97231 75.3767773 602.425633 75.9229858 602.425633 77.5616114 604.612342 79.200237 595.318829 80.8388626 594.772152 80.292654 592.585443 70.4609005 592.585443 69.3684834 591.492089 68.2760664 590.398734 69.3684834 590.398734 66.0912322 589.852057 65.5450237 589.852057 64.9988152 589.30538 64.4526066 588.758703 62.813981 588.212025 62.813981 588.212025 60.0829384 588.758703 58.9905213 587.665348 57.3518957 587.118671 55.1670616 586.571994 54.0746445 586.571994 51.3436019 586.025316 50.7973934"></polygon>
                <path d="M124.629747,119.07346 L115.336234,194.450237 C115.336234,194.450237 132.036188,196.784192 140.386165,197.678066 C152.445471,198.969026 176.564082,201.004739 176.564082,201.004739 L181.484177,140.375592 L157.977057,138.190758 L159.617089,123.443128 L124.629747,119.07346 Z" id="Utah-(UT)"></path>
                <polygon id="Texas-(TX)" points="250.365506 213.021327 288.086234 213.567536 288.086234 243.062796 289.726266 243.062796 293.006329 246.340047 294.646361 245.793839 295.739715 245.793839 296.286392 244.701422 298.473101 246.886256 298.473101 248.524882 301.206487 248.524882 304.486551 249.617299 306.126582 249.07109 307.766614 250.709716 309.406646 249.617299 312.686709 249.617299 312.686709 251.255924 314.326741 251.802133 315.420095 253.986967 318.700158 251.255924 319.246835 252.89455 320.34019 252.89455 321.980222 253.986967 324.16693 252.89455 325.260285 255.625592 327.446994 251.802133 330.18038 253.440758 331.820411 252.89455 332.913766 253.986967 336.193829 255.079384 337.287184 255.079384 337.833861 253.440758 340.567247 252.89455 341.660601 252.89455 344.940665 251.802133 347.127373 252.348341 349.314082 251.255924 352.594146 252.348341 354.234177 253.986967 355.874209 255.079384 359.154272 255.625592 361.340981 256.718009 361.887658 256.171801 364.621044 256.171801 365.167722 256.718009 365.167722 264.911137 365.714399 264.911137 366.261076 280.751185 367.901108 282.38981 369.541139 284.574645 369.541139 286.759479 370.634494 287.851896 370.634494 288.398104 371.727848 289.490521 371.727848 291.129147 372.821203 292.221564 373.36788 292.767773 373.36788 294.406398 373.914557 294.952607 373.36788 295.498815 373.36788 298.776066 372.821203 300.414692 371.727848 302.599526 371.727848 304.238152 371.181171 305.330569 372.274525 307.515403 371.727848 309.700237 370.634494 310.792654 369.541139 312.977488 368.994462 314.069905 370.087816 315.708531 367.901108 315.708531 362.981013 318.439573 360.794304 318.439573 358.060918 318.985782 359.154272 317.347156 359.700949 315.708531 358.607595 315.162322 357.514241 315.708531 356.420886 316.800948 354.234177 316.254739 354.780854 318.439573 355.874209 320.078199 356.967563 321.170616 356.420886 322.263033 354.234177 324.447867 353.140823 323.901659 353.6875 326.632701 350.407437 329.363744 347.127373 331.548578 343.300633 332.094787 342.753956 333.187204 340.02057 333.187204 340.02057 332.094787 338.380538 333.187204 337.287184 332.094787 336.193829 331.00237 336.740506 333.733412 335.100475 333.187204 334.00712 332.094787 333.460443 332.640995 334.553797 334.825829 335.647152 335.372038 334.553797 336.464455 336.740506 335.918246 336.740506 337.010664 334.00712 338.649289 331.820411 335.918246 331.273734 337.556872 331.273734 340.287915 330.727057 341.380332 330.18038 339.195498 326.900316 341.380332 326.353639 342.472749 327.446994 343.565166 329.087025 342.472749 326.900316 345.75 322.526899 345.203791 321.980222 346.296209 323.620253 346.842417 325.806962 348.481043 323.620253 353.943128 322.526899 352.850711 320.886867 353.943128 318.700158 351.758294 319.246835 353.943128 318.700158 354.489336 319.246835 355.035545 321.980222 355.581754 323.073576 355.035545 322.526899 358.859005 321.980222 359.405213 321.980222 362.682464 323.073576 362.682464 323.620253 365.959716 323.073576 367.052133 324.713608 369.783175 325.806962 372.514218 326.900316 373.060427 326.353639 375.245261 325.260285 376.337678 323.073576 375.791469 320.886867 373.606635 313.233386 373.606635 310.5 371.421801 307.219937 370.875592 305.033228 368.690758 301.206487 368.690758 301.206487 367.052133 300.113133 366.505924 299.019778 362.136256 297.379747 359.951422 296.286392 358.859005 296.286392 356.127962 295.193038 354.489336 295.739715 353.396919 295.739715 351.758294 295.193038 350.119668 293.006329 349.027251 290.272943 346.842417 289.726266 345.203791 287.539557 341.92654 285.899525 340.834123 284.806171 339.195498 283.712816 335.372038 282.072785 333.187204 281.526108 331.548578 279.886076 329.363744 279.886076 326.632701 278.246044 325.540284 278.246044 324.447867 274.419304 322.263033 274.419304 321.170616 272.232595 320.624408 272.232595 318.985782 271.139241 318.985782 269.499209 316.254739 265.672468 316.254739 262.392405 315.708531 259.659019 315.708531 257.47231 314.616114 256.378956 316.254739 252.552215 316.800948 250.365506 320.078199 249.818829 322.809242 248.725475 324.447867 245.992089 327.17891 245.992089 328.271327 242.712025 327.17891 241.071994 325.540284 238.885285 325.540284 237.245253 323.35545 234.511867 322.809242 231.231804 319.531991 229.591772 318.985782 227.951741 317.347156 227.405063 315.162322 226.311709 312.977488 225.765032 311.338863 226.311709 309.700237 224.125 305.876777 224.125 304.238152 222.484968 301.507109 219.751582 299.322275 217.564873 298.776066 214.831487 295.498815 214.831487 294.406398 212.644778 292.767773 210.45807 290.582938 208.818038 289.490521 207.178006 288.398104 205.537975 286.759479 205.537975 284.574645 204.44462 284.028436 203.351266 283.482227 201.711234 281.843602 201.711234 280.204976 248.178797 282.38981"></polygon>
                <polygon id="Tennessee-(TN)" points="411.088608 231.046209 485.983386 222.306872 485.983386 218.483412 486.530063 217.937204 488.716772 218.483412 489.263449 215.206161 492.543513 212.475118 495.276899 212.475118 499.103639 208.10545 501.290348 208.10545 501.837025 205.374408 502.93038 205.374408 503.477057 203.735782 505.117089 203.189573 505.663766 204.281991 506.75712 204.281991 507.850475 201.550948 510.583861 201.004739 511.677215 201.550948 513.317247 197.727488 514.410601 196.635071 514.957278 196.635071 514.957278 192.811611 490.903481 196.635071 489.810127 197.727488 439.515823 202.643365 436.235759 202.643365 436.782437 204.281991 436.782437 205.374408 419.835443 207.013033 419.288766 207.559242 418.195411 206.466825 418.195411 207.559242 418.742089 209.744076 417.648734 209.744076 418.195411 211.382701 417.102057 211.382701 418.195411 213.021327 417.102057 213.567536 416.55538 215.206161 417.648734 215.75237 418.195411 216.298578 416.55538 216.298578 416.55538 217.390995 417.102057 217.937204 414.368671 219.575829 414.915348 221.760664 414.915348 222.853081 413.821994 222.853081 413.275316 225.037915 412.728639 226.67654 413.821994 228.861374 412.181962 228.861374"></polygon>
                <path d="M266.907004,114.580155 C258.659785,114.439297 242.165348,113.611374 242.165348,113.611374 L242.712025,83.5699052 L243.258703,83.5699052 L243.80538,69.9146919 C243.80538,69.9146919 274.261565,70.4609005 289.726266,70.4609005 C301.959877,70.4609005 326.900316,69.9146919 326.900316,69.9146919 L326.353639,71.5533175 L325.260285,73.1919431 L323.620253,74.2843602 L325.260285,77.5616114 L327.446994,78.1078199 L328.540348,79.7464455 L329.087025,106.510664 L327.446994,106.510664 L327.446994,107.603081 L328.540348,108.695498 L327.993671,110.334123 L329.087025,111.42654 L328.540348,115.796209 L327.446994,117.434834 L329.087025,121.258294 L327.993671,121.258294 L326.900316,119.619668 L326.900316,118.527251 L325.260285,118.527251 L324.713608,117.981043 L323.073576,117.434834 L321.433544,117.434834 L319.793513,115.796209 L317.060127,116.342417 L313.233386,116.342417 L312.140032,117.434834 L310.5,117.434834 L306.126582,114.703791 C306.126582,114.703791 279.980197,114.803436 266.907004,114.580155 Z" id="South-Dakota-(SD)"></path>
                <polygon id="South-Carolina-(SC)" points="505.117089 218.483412 501.290348 220.122038 500.196994 221.760664 498.556962 225.037915 501.290348 226.130332 501.837025 226.67654 503.477057 227.768957 505.663766 227.222749 505.663766 228.861374 507.303797 229.953791 507.850475 231.592417 508.397152 232.138626 510.037184 233.231043 510.583861 234.869668 511.677215 234.869668 512.223892 235.962085 514.957278 237.054502 516.59731 239.785545 518.237342 239.785545 519.877373 241.424171 519.877373 242.516588 521.517405 243.062796 521.517405 244.155213 522.610759 244.701422 522.610759 245.793839 524.250791 245.793839 526.984177 247.432464 526.984177 248.524882 528.077532 250.163507 528.624209 252.348341 529.170886 253.440758 530.810918 253.440758 531.357595 254.533175 532.997627 256.718009 532.997627 258.902844 534.090981 260.541469 534.637658 259.995261 535.731013 259.995261 536.824367 259.995261 537.371044 258.356635 537.371044 256.718009 538.464399 257.810427 536.824367 255.079384 535.731013 252.89455 536.27769 252.348341 537.917722 255.079384 539.011076 255.625592 538.464399 253.440758 539.557753 254.533175 540.10443 256.171801 541.197785 255.079384 540.651108 253.440758 539.557753 252.89455 538.464399 252.348341 540.651108 251.802133 542.291139 252.348341 543.384494 251.255924 543.384494 250.163507 545.024525 250.163507 546.664557 249.07109 547.757911 247.978673 546.664557 246.886256 546.664557 245.793839 547.757911 245.793839 548.304589 246.886256 549.397943 245.793839 550.491297 244.701422 550.491297 242.516588 551.584652 241.970379 552.678006 242.516588 553.771361 240.877962 553.224684 239.785545 555.411392 238.693128 553.771361 238.146919 553.771361 236.508294 554.864715 234.869668 554.864715 237.600711 556.504747 232.684834 558.144778 229.953791 560.878165 227.222749 545.024525 215.75237 530.810918 217.937204 530.264241 215.75237 528.077532 214.113744 526.984177 215.206161 526.4375 213.567536 510.037184 215.75237 507.850475 216.844787 506.210443 217.390995 505.663766 218.483412"></polygon>
                <polygon id="Rhode-Island-(RI)" points="614.452532 87.9395735 616.639241 95.5864929 616.639241 97.771327 617.732595 97.2251185 618.825949 96.1327014 620.465981 96.1327014 620.465981 95.0402844 620.465981 93.9478673 619.919304 92.8554502 620.465981 91.7630332 619.372627 91.7630332 619.919304 90.6706161 619.372627 89.5781991 619.919304 89.0319905 619.919304 87.9395735 619.372627 87.9395735 618.825949 86.3009479"></polygon>
                <polygon id="Pennsylvania-(PA)" points="514.957278 109.787915 518.237342 129.99763 520.970728 143.652844 576.731804 132.728673 577.278481 131.090047 578.371835 129.99763 581.105222 129.99763 581.651899 128.905213 583.29193 127.812796 583.29193 126.720379 587.118671 123.443128 587.118671 122.350711 583.838608 120.165877 582.745253 120.165877 582.198576 117.981043 580.558544 118.527251 580.011867 116.342417 580.558544 114.703791 581.105222 113.611374 580.011867 112.518957 580.011867 111.42654 581.105222 110.334123 582.198576 108.149289 582.198576 107.056872 583.838608 105.418246 582.745253 104.325829 581.105222 104.325829 579.46519 104.325829 578.371835 102.687204 578.371835 101.594787 578.371835 99.9561611 576.731804 98.8637441 575.638449 99.4099526 575.091772 98.3175355 573.451741 97.771327 523.704114 108.149289 523.157437 104.325829"></polygon>
                <polygon id="Oregon-(OR)" points="90.1890823 114.157583 94.5625 86.8471564 95.6558544 84.6623223 95.6558544 83.0236967 96.7492089 81.9312796 95.6558544 80.8388626 93.4691456 80.292654 94.0158228 77.0154028 96.7492089 73.7381517 98.9359177 71.5533175 99.4825949 69.9146919 101.669304 66.6374408 102.215981 65.5450237 104.949367 62.2677725 104.40269 59.5367299 101.122627 56.8056872 101.122627 55.1670616 78.1621835 51.3436019 76.5221519 52.436019 71.602057 51.3436019 69.9620253 51.8898104 65.0419304 52.436019 62.3085443 52.9822275 59.5751582 52.436019 55.7484177 52.9822275 55.2017405 52.436019 53.0150316 52.9822275 52.4683544 51.3436019 49.7349684 50.2511848 46.4549051 49.7049763 40.9881329 51.3436019 39.3481013 50.2511848 35.5213608 49.1587678 35.5213608 48.0663507 36.068038 44.242891 34.9746835 41.5118483 33.3346519 39.8732227 31.6946203 40.4194313 30.0545886 40.4194313 29.5079114 38.7808057 27.3212025 39.3270142 26.2278481 38.7808057 25.6811709 39.8732227 24.0411392 38.2345972 24.0411392 40.9656398 22.9477848 42.0580569 22.9477848 44.242891 23.494462 45.3353081 22.4011076 46.4277251 22.9477848 48.6125592 21.8544304 48.6125592 18.5743671 57.8981043 18.0276899 59.5367299 18.5743671 60.6291469 18.0276899 61.721564 17.4810127 62.813981 17.4810127 63.9063981 16.3876582 64.9988152 15.2943038 69.9146919 14.2009494 72.6457346 14.7476266 73.7381517 13.6542722 74.2843602 12.0142405 77.0154028 13.1075949 77.0154028 13.1075949 78.6540284 12.0142405 78.1078199 10.9208861 79.7464455 10.3742089 78.6540284 8.73417722 82.4774882 7.09414557 85.7547393 7.64082278 87.9395735 7.09414557 91.2168246 6.54746835 94.4940758 6.54746835 96.67891 7.64082278 98.8637441 55.7484177 108.695498"></polygon>
                <path d="M251.458861,204.828199 C251.458861,204.828199 285.151919,205.742499 301.998449,205.65344 C319.592584,205.560429 354.780854,204.281991 354.780854,204.281991 L355.327532,212.475118 L358.060918,228.315166 L359.154272,255.625592 L355.874209,255.079384 L354.234177,253.986967 L352.594146,252.348341 L350.954114,251.802133 L349.314082,251.255924 L347.127373,252.348341 L344.940665,251.802133 L341.660601,252.89455 L340.567247,252.89455 L337.833861,253.440758 L337.287184,255.079384 L336.193829,255.079384 L334.553797,254.533175 L332.913766,253.986967 L331.820411,252.89455 L330.18038,253.440758 L327.446994,251.802133 L325.260285,255.625592 L324.16693,252.89455 L321.980222,253.986967 L320.34019,252.89455 L319.246835,252.89455 L318.700158,251.255924 L315.420095,253.986967 L314.326741,251.802133 L312.686709,251.255924 L312.686709,249.617299 L309.406646,249.617299 L307.766614,250.709716 L306.126582,249.07109 L304.486551,249.617299 L301.206487,248.524882 L298.473101,248.524882 L298.473101,246.886256 L296.286392,244.701422 L295.739715,245.793839 L294.646361,245.793839 L293.006329,246.340047 L291.366297,244.701422 L289.726266,243.062796 L288.086234,243.062796 L288.086234,213.567536 L251.458861,213.021327 L251.458861,204.828199 Z" id="Oklahoma-(OK)"></path>
                <polygon id="Ohio-(OH)" points="466.303006 121.804502 471.223101 161.131517 472.316456 160.0391 473.956487 161.131517 475.049842 160.0391 476.143196 161.131517 477.236551 161.131517 478.876582 164.408768 480.516614 164.954976 483.25 164.408768 484.890032 166.047393 485.983386 166.593602 487.076741 164.954976 489.263449 164.954976 490.356804 166.047393 490.903481 165.501185 492.543513 165.501185 493.09019 164.408768 495.276899 162.770142 496.370253 165.501185 498.556962 166.047393 499.650316 167.686019 500.743671 167.13981 502.93038 166.047393 502.93038 164.408768 504.023734 163.862559 503.477057 161.131517 503.477057 160.0391 504.023734 158.400474 505.117089 157.308057 506.210443 157.854265 506.210443 158.946682 506.75712 158.946682 507.850475 157.854265 507.850475 156.761848 507.303797 156.21564 507.850475 155.123223 508.397152 152.938389 509.490506 152.39218 509.490506 151.299763 511.130538 150.207346 512.223892 151.299763 514.410601 149.114929 514.410601 147.476303 517.143987 145.837678 517.143987 143.652844 517.690665 140.375592 517.690665 137.64455 518.237342 135.459716 517.690665 133.82109 518.237342 132.182464 516.59731 131.090047 518.237342 129.99763 514.957278 109.787915 506.210443 115.25 502.383703 119.619668 500.743671 120.165877 498.556962 120.165877 496.370253 121.258294 494.730222 121.804502 494.183544 122.896919 490.903481 122.350711 489.810127 122.350711 488.716772 122.896919 487.076741 122.350711 490.356804 120.712085 489.263449 120.712085 488.170095 121.258294 485.436709 120.165877 482.703323 119.619668 481.609968 119.07346"></polygon>
                <path d="M285.899525,70.4609005 C271.785483,70.4609005 243.80538,69.9146919 243.80538,69.9146919 L244.898734,25.1255924 C244.898734,25.1255924 265.48972,25.8253333 275.785213,25.9020994 C289.907969,26.0074028 318.153481,25.6718009 318.153481,25.6718009 L319.793513,30.0414692 L319.246835,31.6800948 L319.246835,37.6883886 L322.526899,45.3353081 L323.073576,48.0663507 L323.073576,52.436019 L323.620253,55.1670616 L323.620253,56.2594787 L324.16693,60.0829384 L324.713608,62.2677725 L326.353639,64.4526066 L326.900316,69.9146919 C326.900316,69.9146919 299.483796,70.4609005 285.899525,70.4609005 Z" id="North-Dakota-(ND)"></path>
                <polygon id="North-Carolina-(NC)" points="514.957278 193.35782 583.838608 180.795024 586.025316 182.979858 588.212025 186.257109 585.478639 184.072275 586.025316 185.7109 583.29193 184.072275 582.198576 184.618483 584.931962 186.257109 583.838608 186.803318 581.651899 186.257109 583.29193 187.895735 580.011867 186.257109 580.011867 187.349526 581.651899 188.441943 580.011867 189.53436 577.825158 189.53436 577.278481 187.349526 577.278481 185.164692 576.185127 185.164692 576.185127 188.441943 577.278481 190.080569 577.278481 191.719194 580.011867 191.172986 581.105222 190.080569 582.198576 191.172986 583.838608 190.626777 584.931962 188.988152 586.025316 190.626777 585.478639 192.265403 586.571994 192.811611 585.478639 193.904028 587.118671 193.904028 587.665348 191.719194 587.118671 190.080569 588.758703 190.080569 589.30538 188.988152 590.398734 191.172986 590.398734 192.811611 590.398734 194.450237 589.30538 193.904028 588.758703 194.450237 587.665348 197.727488 586.571994 198.819905 584.385285 198.819905 583.29193 197.727488 582.198576 198.819905 581.651899 197.727488 582.745253 196.635071 579.46519 197.18128 580.558544 198.819905 577.278481 198.819905 575.091772 198.273697 576.185127 199.912322 579.46519 200.458531 582.745253 200.458531 582.745253 201.550948 580.558544 202.643365 582.198576 203.189573 580.558544 205.374408 578.918513 205.374408 575.638449 203.735782 577.825158 206.466825 580.011867 207.013033 581.105222 207.013033 582.198576 205.374408 583.29193 206.466825 586.025316 204.828199 583.838608 209.197867 582.198576 208.10545 580.558544 209.197867 577.825158 210.836493 576.185127 209.744076 576.185127 211.382701 574.545095 213.567536 573.998418 211.382701 572.905063 211.382701 573.451741 212.475118 572.905063 213.021327 573.998418 214.113744 571.811709 215.75237 570.171677 218.483412 569.078323 221.214455 569.078323 222.853081 567.984968 220.668246 567.984968 225.584123 564.158228 225.584123 563.611551 225.584123 562.518196 226.67654 560.878165 227.222749 545.024525 215.75237 530.810918 217.937204 530.264241 215.75237 528.077532 214.113744 526.984177 215.206161 526.4375 213.567536 510.037184 215.75237 506.210443 217.390995 505.663766 218.483412 505.117089 218.483412 501.290348 220.122038 485.983386 222.306872 485.983386 218.483412 486.530063 217.937204 488.716772 218.483412 489.263449 215.206161 492.543513 212.475118 495.276899 212.475118 499.103639 208.10545 501.290348 208.10545 501.837025 205.374408 502.93038 205.374408 503.477057 203.735782 505.117089 203.189573 505.663766 204.281991 506.75712 204.281991 507.850475 201.550948 510.583861 201.004739 511.677215 201.550948 513.317247 197.727488 514.410601 196.635071 514.957278 196.635071"></polygon>
                <path d="M523.157437,104.325829 L523.704114,108.149289 L573.451741,97.771327 L575.091772,98.3175355 L575.638449,99.4099526 L576.731804,98.8637441 L578.371835,99.9561611 L578.371835,102.687204 L579.46519,104.325829 L582.745253,104.325829 L583.838608,105.418246 L593.678797,108.695498 L593.678797,108.149289 L593.13212,106.510664 L592.038766,105.418246 L592.038766,103.779621 L592.585443,103.779621 L593.13212,104.872038 L593.678797,105.964455 L594.225475,106.510664 L594.772152,110.880332 L596.412184,109.241706 L596.958861,108.149289 L595.865506,106.510664 L598.052215,103.779621 L596.958861,102.687204 L595.318829,91.7630332 L594.772152,91.7630332 L595.318829,80.8388626 L594.772152,80.292654 L592.585443,70.4609005 L592.585443,69.3684834 L591.492089,68.2760664 L590.945411,68.8222749 L590.398734,69.3684834 L590.398734,68.2760664 L590.398734,66.0912322 L589.852057,65.5450237 L589.852057,64.9988152 L589.30538,64.4526066 L588.758703,62.813981 L588.212025,62.813981 L588.212025,60.0829384 L588.758703,58.9905213 L587.665348,57.3518957 L587.118671,55.1670616 L586.571994,54.0746445 L586.571994,52.436019 L586.571994,51.3436019 L586.025316,50.7973934 L586.025316,48.6125592 L570.718354,52.436019 L569.078323,52.436019 L566.344937,54.6208531 L565.251582,56.2594787 L561.971519,60.6291469 L561.424842,61.721564 L561.424842,63.3601896 L559.78481,64.9988152 L555.95807,68.8222749 L556.504747,69.3684834 L558.144778,69.3684834 L559.238133,69.3684834 L559.78481,69.9146919 L559.238133,71.007109 L558.144778,72.6457346 L557.598101,72.6457346 L558.691456,73.7381517 L558.691456,74.8305687 L559.78481,75.3767773 L559.238133,75.9229858 L559.238133,77.0154028 L558.144778,77.5616114 L557.051424,77.5616114 L554.864715,80.292654 L554.318038,81.3850711 L552.131329,82.4774882 L551.584652,83.0236967 L549.94462,83.0236967 L548.304589,83.0236967 L547.211234,83.5699052 L545.024525,84.6623223 L543.931171,84.6623223 L542.837816,83.5699052 L537.917722,84.1161137 L536.824367,84.6623223 L534.637658,84.6623223 L528.077532,87.3933649 L528.624209,88.485782 L528.624209,89.5781991 L528.624209,90.1244076 L530.810918,90.1244076 L530.810918,91.2168246 L530.264241,92.3092417 L531.357595,93.4016588 L531.357595,94.4940758 L530.264241,96.1327014 L529.170886,98.3175355 L526.984177,99.9561611 L525.890823,101.594787 L523.157437,104.325829 Z M593.13212,114.157583 L592.585443,114.703791 L592.038766,116.342417 L593.13212,115.796209 L593.678797,114.703791 L593.13212,114.157583 Z M594.225475,113.611374 L594.225475,114.157583 L594.772152,114.703791 L595.318829,114.157583 L595.865506,113.611374 L596.412184,113.065166 L597.505538,113.611374 L598.052215,113.065166 L602.425633,110.880332 L604.065665,110.880332 L604.065665,109.787915 L605.159019,109.787915 L607.345728,108.149289 L610.079114,107.603081 L610.625791,106.510664 L610.079114,105.964455 L609.532437,106.510664 L608.985759,105.964455 L611.172468,103.233412 L610.625791,102.687204 L608.439082,105.418246 L607.892405,105.964455 L605.159019,106.510664 L604.065665,106.510664 L603.518987,107.056872 L602.97231,107.056872 L602.97231,107.603081 L600.785601,108.149289 L600.238924,108.695498 L599.14557,108.149289 L599.14557,109.241706 L598.598892,108.695498 L598.052215,109.241706 L598.052215,110.334123 L596.958861,110.880332 L596.412184,111.42654 L595.318829,111.42654 L594.772152,111.972749 L594.225475,113.611374 Z M611.172468,105.418246 L611.172468,105.964455 L611.719146,105.964455 L613.359177,104.872038 L613.905854,103.779621 L614.999209,103.779621 L616.639241,102.140995 L614.452532,103.233412 L613.905854,103.233412 L613.359177,103.233412 L612.265823,103.779621 L611.719146,104.325829 L611.172468,105.418246 Z" id="New-York-(NY)"></path>
                <path d="M176.564082,201.004739 C176.564082,201.004739 196.377993,202.706973 206.284949,203.284985 C221.342919,204.163529 251.458861,205.374408 251.458861,205.374408 L251.458861,213.021327 L250.365506,213.021327 L248.178797,282.38981 L201.711234,280.204976 L201.711234,281.843602 L203.351266,283.482227 L180.9375,281.843602 L180.390823,288.944313 L169.457278,287.851896 L176.564082,201.004739 Z" id="New-Mexico-(NM)"></path>
                <polygon id="New-Jersey-(NJ)" points="583.838608 105.418246 593.678797 108.695498 594.225475 109.241706 593.678797 111.42654 593.678797 113.065166 592.585443 113.611374 592.038766 114.703791 591.492089 116.342417 592.038766 117.434834 594.225475 117.981043 595.318829 117.981043 595.865506 120.712085 595.318829 123.443128 595.318829 125.081754 595.318829 126.720379 594.772152 127.266588 595.318829 128.359005 594.772152 130.543839 594.225475 131.090047 593.13212 131.090047 594.225475 132.728673 593.13212 132.728673 593.13212 133.82109 593.678797 134.367299 592.585443 134.367299 592.038766 135.459716 590.945411 136.005924 592.038766 136.552133 590.945411 138.736967 590.945411 139.283175 590.398734 139.829384 590.398734 140.921801 589.30538 142.014218 589.30538 140.921801 589.30538 138.190758 588.212025 138.190758 587.118671 138.190758 586.025316 138.736967 585.478639 137.64455 583.838608 137.64455 583.29193 136.552133 582.198576 136.552133 580.558544 135.459716 580.558544 133.82109 580.011867 133.274882 580.558544 131.636256 580.558544 130.543839 581.105222 130.543839 582.198576 128.905213 583.29193 127.812796 583.29193 126.720379 587.118671 123.443128 587.118671 122.350711 583.838608 120.165877 582.745253 120.165877 582.198576 117.981043 580.558544 118.527251 580.011867 116.342417 580.558544 114.703791 581.105222 113.611374 580.011867 112.518957 580.011867 111.42654 581.105222 110.334123 582.198576 108.149289 582.198576 107.056872"></polygon>
                <polygon id="New-Hampshire-(NH)" points="604.612342 79.200237 616.092563 76.4691943 617.732595 75.9229858 618.825949 73.7381517 619.372627 73.7381517 619.919304 72.6457346 621.012658 72.0995261 622.106013 72.0995261 622.106013 70.4609005 622.65269 69.3684834 620.465981 68.2760664 620.465981 66.6374408 618.279272 65.5450237 618.279272 63.9063981 617.185918 61.1753555 609.532437 38.2345972 608.985759 39.3270142 607.345728 38.7808057 606.799051 39.3270142 606.799051 40.4194313 606.252373 42.0580569 606.252373 43.6966825 606.799051 44.7890995 605.705696 46.9739336 607.345728 49.1587678 606.799051 49.7049763 606.799051 50.7973934 605.159019 53.528436 604.612342 54.0746445 603.518987 54.0746445 602.97231 55.1670616 603.518987 56.8056872 603.518987 60.6291469 602.97231 61.1753555 602.97231 63.3601896 602.425633 64.4526066 602.425633 66.0912322 601.878956 66.6374408 602.425633 69.9146919 602.97231 70.4609005 602.425633 72.6457346 602.97231 73.7381517 602.97231 75.3767773 602.425633 75.9229858 602.425633 77.5616114"></polygon>
                <path d="M90.6046906,114.452294 C101.946376,116.174752 124.629747,119.07346 124.629747,119.07346 L113.696203,205.920616 L113.149525,207.013033 L112.056171,209.197867 L110.416139,209.197867 L109.869462,207.013033 L108.776108,207.559242 L107.136076,206.466825 L104.949367,207.559242 L104.40269,209.744076 L104.949367,211.382701 L104.40269,212.475118 L104.949367,215.206161 L104.40269,216.844787 L104.949367,219.575829 L104.949367,221.760664 L103.856013,222.306872 L103.856013,224.491706 L47.5482595,152.938389 L55.7484177,108.695498 C55.7484177,108.695498 79.1681587,112.715431 90.6046906,114.452294 Z" id="Nevada-(NV)"></path>
                <path d="M264.579114,144.199052 L264.579114,160.0391 C264.579114,160.0391 286.37487,160.286992 297.272748,160.137834 C312.979828,159.922853 344.393987,158.946682 344.393987,158.946682 L343.300633,157.854265 L343.300633,156.761848 L342.207278,155.123223 L340.567247,154.030806 L339.473892,151.299763 L338.380538,150.753555 L338.380538,148.56872 L337.287184,147.476303 L337.287184,145.291469 L337.287184,140.921801 L336.193829,139.829384 L337.287184,139.283175 L335.647152,138.190758 L335.647152,136.552133 L334.00712,134.913507 L334.553797,131.636256 L333.460443,130.543839 L333.460443,128.905213 L332.367089,128.359005 L331.820411,126.720379 L330.727057,126.174171 L330.727057,123.989336 L330.18038,121.258294 L327.993671,121.258294 L326.900316,119.619668 L326.900316,118.527251 L325.260285,118.527251 L324.713608,117.981043 L323.073576,117.434834 L321.433544,117.434834 L319.793513,115.796209 L317.060127,116.342417 L315.966772,116.342417 L313.233386,116.342417 L312.140032,117.434834 L310.5,117.434834 L306.126582,114.703791 C306.126582,114.703791 279.331667,114.79236 265.93421,114.56354 C258.011256,114.428221 242.165348,113.611374 242.165348,113.611374 L241.071994,144.199052 L264.579114,144.199052 Z" id="Nebraska-(NE)"></path>
                <path d="M202.466803,82.0021779 C215.3352,82.8888927 243.258703,83.5699052 243.258703,83.5699052 L244.898734,25.1255924 C244.898734,25.1255924 224.75613,24.4294098 203.378121,22.9100436 C190.593843,22.0014464 177.367764,20.4475898 167.743351,19.5473534 C150.638763,17.9474457 116.429589,13.6552133 116.429589,13.6552133 L114.24288,27.3104265 L116.429589,30.5876777 L117.522943,33.3187204 L116.976266,34.4111374 L117.522943,36.049763 L116.976266,36.049763 L119.162975,38.7808057 L120.803006,39.8732227 L124.629747,44.7890995 L124.08307,45.8815166 L126.269778,48.0663507 L127.363133,48.0663507 L127.363133,49.7049763 L130.643196,49.7049763 L128.456487,56.2594787 L127.363133,56.8056872 L127.90981,61.1753555 L126.269778,61.721564 L126.269778,64.9988152 L128.456487,67.1836493 L132.829905,63.9063981 L133.923259,66.0912322 L135.016614,70.4609005 L137.203323,74.8305687 L136.656646,77.0154028 L138.296677,78.6540284 L139.936709,78.6540284 L141.030063,83.0236967 L143.216772,85.2085308 L144.310127,83.5699052 L148.136867,84.6623223 L149.230222,83.0236967 L154.150316,83.5699052 L154.696994,84.1161137 L157.977057,84.1161137 L159.070411,81.9312796 L160.163766,81.9312796 L162.897152,85.7547393 L163.443829,85.2085308 L163.990506,78.1078199 C163.990506,78.1078199 188.912468,81.0681976 202.466803,82.0021779 Z" id="Montana-(MT)"></path>
                <path d="M358.041907,149.09118 C351.488117,149.463236 338.380538,149.661137 338.380538,149.661137 L338.380538,150.753555 L339.473892,151.299763 L340.567247,154.030806 L342.207278,155.123223 L343.300633,156.761848 L343.300633,157.854265 L344.393987,158.946682 L347.127373,160.585308 L348.220728,160.0391 L349.314082,160.585308 L349.860759,162.223934 L348.767405,162.770142 L348.220728,163.862559 L347.127373,165.501185 L348.220728,166.593602 L349.860759,167.686019 L349.860759,168.778436 L350.954114,170.417062 L352.594146,170.417062 L353.6875,170.96327 L354.780854,204.281991 L355.327532,211.92891 L410.54193,208.10545 L412.181962,209.744076 L412.181962,210.836493 L409.448576,214.659953 L408.901899,215.206161 L408.901899,215.75237 L408.901899,216.298578 L416.55538,215.206161 L417.102057,213.567536 L418.195411,213.021327 L417.102057,211.382701 L418.195411,211.382701 L417.648734,209.744076 L418.742089,209.744076 L418.195411,207.559242 L418.195411,206.466825 L419.288766,207.559242 L419.835443,207.013033 L420.38212,205.374408 L420.38212,204.828199 L422.022152,205.920616 L422.568829,204.281991 L423.115506,202.643365 L422.568829,201.550948 L423.115506,199.366114 L422.022152,199.366114 L420.928797,198.273697 L420.928797,199.366114 L419.288766,198.819905 L419.288766,197.727488 L417.648734,195.542654 L417.648734,194.996445 L418.195411,193.35782 L418.195411,192.811611 L417.102057,191.719194 L417.102057,189.53436 L414.915348,188.441943 L413.821994,186.803318 L413.275316,186.803318 L411.088608,185.7109 L409.995253,185.164692 L405.621835,181.887441 L405.621835,179.702607 L407.261867,175.332938 L407.261867,173.694313 L407.808544,172.601896 L406.168513,170.96327 L403.981804,170.96327 L402.341772,172.601896 L401.248418,171.509479 L400.155063,168.778436 L400.155063,167.13981 L399.061709,165.501185 L395.781646,163.862559 L395.234968,162.770142 L391.954905,160.0391 L391.408228,158.946682 L390.861551,157.854265 L390.314873,156.761848 L389.221519,153.484597 L389.768196,151.299763 L390.314873,150.207346 L386.488133,146.930095 C386.488133,146.930095 367.523982,148.552888 358.041907,149.09118 Z" id="Missouri-(MO)"></path>
                <polygon id="Mississippi-(MS)" points="437.329114 228.315166 437.875791 229.407583 438.969146 229.953791 438.969146 267.64218 438.969146 276.927725 442.249209 298.776066 441.702532 300.414692 439.515823 299.322275 438.969146 299.868483 437.329114 299.868483 435.142405 298.776066 432.955696 300.414692 431.315665 301.507109 429.675633 300.414692 429.675633 301.507109 429.128956 303.145735 426.39557 303.691943 426.39557 302.599526 425.302215 299.868483 423.662184 298.229858 423.115506 296.591232 423.662184 292.767773 423.662184 291.675355 399.061709 293.86019 399.061709 291.675355 398.515032 289.490521 399.608386 289.490521 400.155063 288.398104 399.608386 286.21327 400.701741 284.574645 401.795095 280.751185 405.075158 278.020142 404.528481 275.835308 405.075158 275.835308 406.168513 272.558057 403.981804 270.919431 403.981804 269.280806 402.888449 267.64218 403.981804 267.095972 403.435127 266.549763 402.888449 265.457346 403.981804 263.81872 402.341772 262.726303 402.341772 261.087678 403.435127 259.995261 402.341772 258.356635 402.341772 255.625592 401.248418 254.533175 402.341772 253.440758 401.248418 252.348341 402.888449 250.163507 402.341772 247.432464 404.528481 246.340047 405.075158 245.793839 403.981804 244.701422 406.168513 242.516588 406.168513 241.424171 407.808544 240.331754 407.808544 235.415877 409.448576 235.415877 409.448576 233.777251 411.088608 232.684834 411.088608 231.046209"></polygon>
                <polygon id="Minnesota-(MN)" points="388.674842 103.233412 329.087025 106.510664 328.540348 79.7464455 327.446994 78.1078199 325.260285 77.5616114 323.620253 74.2843602 325.260285 73.1919431 326.353639 71.5533175 326.900316 69.9146919 326.353639 64.4526066 324.713608 62.2677725 324.16693 60.0829384 323.620253 56.2594787 323.620253 55.1670616 323.073576 52.436019 323.073576 48.0663507 322.526899 44.7890995 319.246835 37.6883886 319.246835 31.6800948 319.793513 30.0414692 318.153481 25.6718009 340.567247 24.5793839 340.567247 19.1172986 342.753956 19.6635071 343.84731 21.3021327 344.940665 24.5793839 344.940665 26.764218 346.580696 28.4028436 349.860759 28.4028436 350.407437 28.9490521 354.780854 29.4952607 355.327532 31.1338863 356.967563 30.5876777 359.154272 30.5876777 359.700949 29.4952607 361.340981 28.9490521 364.621044 28.9490521 365.714399 29.4952607 367.901108 29.4952607 367.901108 30.5876777 366.807753 30.5876777 367.35443 31.1338863 369.541139 31.1338863 370.087816 33.3187204 371.181171 33.8649289 371.727848 34.4111374 372.274525 32.2263033 374.461234 32.2263033 375.007911 33.8649289 376.101266 33.8649289 377.741297 33.8649289 378.287975 35.5035545 379.381329 35.5035545 379.928006 36.5959716 382.661392 35.5035545 383.754747 34.957346 387.03481 32.7725118 388.674842 34.957346 390.861551 34.4111374 395.781646 33.8649289 397.421677 35.5035545 398.515032 34.957346 400.701741 34.957346 396.875 37.6883886 390.861551 39.8732227 387.03481 43.1504739 382.661392 48.0663507 378.287975 52.436019 375.554589 54.0746445 375.007911 55.7132701 374.461234 56.8056872 373.36788 56.8056872 373.914557 62.2677725 373.914557 65.5450237 372.274525 66.6374408 369.541139 68.2760664 368.994462 69.9146919 367.901108 71.5533175 367.901108 73.1919431 369.541139 73.7381517 370.634494 75.3767773 370.087816 77.5616114 369.541139 79.200237 370.087816 80.292654 369.541139 80.8388626 370.087816 81.9312796 369.541139 85.2085308 372.274525 87.3933649 374.461234 87.3933649 376.101266 89.0319905 378.287975 89.5781991 380.474684 91.7630332 382.114715 93.9478673 383.754747 95.0402844 385.941456 95.0402844 388.128165 97.2251185 388.674842 98.8637441"></polygon>
                <path d="M442.795886,123.989336 L466.303006,120.712085 L466.303006,121.804502 L481.609968,119.07346 L481.609968,117.434834 L483.796677,114.703791 L483.796677,110.880332 L484.890032,108.695498 L486.530063,108.149289 L485.983386,105.964455 L487.623418,104.872038 L487.076741,103.779621 L488.170095,103.233412 L489.810127,104.872038 L490.903481,98.3175355 L488.716772,95.5864929 L487.076741,90.1244076 L485.436709,85.7547393 L484.343354,83.5699052 L482.156646,83.5699052 L479.969937,85.2085308 L478.876582,85.2085308 L477.236551,89.5781991 L476.143196,89.5781991 L475.596519,91.2168246 L473.956487,91.2168246 L471.223101,90.6706161 L471.769778,86.3009479 L473.956487,85.2085308 L475.049842,84.1161137 L475.049842,81.9312796 L476.143196,80.8388626 L477.236551,79.7464455 L476.689873,73.7381517 L475.596519,71.5533175 L473.956487,70.4609005 L474.503165,68.8222749 L476.143196,69.3684834 L475.049842,67.7298578 L473.956487,67.7298578 L473.956487,65.5450237 L471.769778,65.5450237 L470.129747,64.9988152 L468.489715,64.4526066 L465.209652,64.4526066 L464.662975,62.813981 L463.022943,62.2677725 L461.382911,62.2677725 L458.102848,61.1753555 L456.462816,62.2677725 L454.822785,63.9063981 L454.822785,65.5450237 L455.369462,66.0912322 L457.556171,66.6374408 L457.009494,67.1836493 L453.72943,68.2760664 L452.089399,69.3684834 L452.636076,72.0995261 L452.636076,75.3767773 L451.542722,77.5616114 L450.449367,77.0154028 L449.90269,75.9229858 L449.90269,73.1919431 L449.90269,71.007109 L448.262658,74.2843602 L447.715981,75.3767773 L446.622627,75.3767773 L444.982595,76.4691943 L445.529272,78.1078199 L443.342563,79.200237 L444.435918,80.8388626 L444.435918,84.6623223 L443.342563,86.8471564 L441.702532,89.0319905 L443.342563,91.2168246 L443.342563,92.8554502 L442.249209,95.0402844 L443.342563,97.771327 L444.982595,99.9561611 L445.529272,100.50237 L446.622627,100.50237 L446.075949,102.140995 L447.169304,104.872038 L447.715981,106.510664 L447.715981,113.611374 L446.075949,117.434834 L444.982595,120.165877 L444.435918,122.896919 L442.795886,123.989336 Z M427.488924,75.3767773 L430.768987,67.7298578 L432.409019,64.9988152 L432.955696,61.721564 L434.049051,63.3601896 L434.049051,64.9988152 L435.689082,62.813981 L437.875791,61.721564 L438.422468,63.9063981 L436.782437,65.5450237 L437.329114,66.0912322 L440.0625,62.813981 L441.155854,61.1753555 L443.342563,60.0829384 L444.982595,60.6291469 L447.715981,59.5367299 L448.809335,57.8981043 L452.636076,57.3518957 L455.916139,58.4443128 L457.556171,60.0829384 L458.649525,56.8056872 L461.382911,56.8056872 L465.756329,57.3518957 L467.396361,56.8056872 L469.036392,56.8056872 L471.223101,56.8056872 L471.223101,55.7132701 L470.129747,54.6208531 L469.036392,56.2594787 L466.849684,56.2594787 L465.209652,55.1670616 L464.116297,54.6208531 L463.022943,54.0746445 L463.022943,52.9822275 L463.56962,51.3436019 L463.022943,49.1587678 L461.382911,50.2511848 L459.196203,51.3436019 L458.102848,51.3436019 L457.556171,50.7973934 L455.916139,51.3436019 L453.182753,50.7973934 L453.182753,46.9739336 L450.996044,47.5201422 L447.715981,49.7049763 L443.889241,49.1587678 L440.609177,50.2511848 L437.329114,52.9822275 L436.235759,54.0746445 L434.595728,53.528436 L433.502373,54.6208531 L431.862342,52.9822275 L429.128956,54.6208531 L427.488924,54.0746445 L424.208861,49.7049763 L420.928797,49.1587678 L418.742089,49.7049763 L415.462025,51.8898104 L414.915348,48.0663507 L417.102057,45.3353081 L419.835443,42.6042654 L419.288766,42.0580569 L422.568829,40.9656398 L420.928797,40.9656398 L417.648734,41.5118483 L414.368671,43.6966825 L413.275316,45.3353081 L411.635285,45.8815166 L410.54193,47.5201422 L409.448576,49.1587678 L407.808544,49.1587678 L405.621835,51.3436019 L400.701741,52.436019 L399.608386,54.0746445 L397.968354,55.1670616 L394.141614,56.8056872 L396.328323,57.3518957 L397.968354,59.5367299 L411.088608,62.2677725 L413.275316,63.3601896 L416.008703,62.813981 L419.288766,63.3601896 L420.928797,63.9063981 L420.928797,65.5450237 L422.568829,65.5450237 L424.208861,66.6374408 L425.302215,69.3684834 L424.208861,71.5533175 L424.755538,71.5533175 L426.39557,71.007109 L426.942247,71.007109 L425.848892,74.2843602 L427.488924,75.3767773 Z" id="Michigan-(MI)"></path>
                <path d="M594.772152,91.7630332 L595.318829,91.7630332 L602.425633,90.1244076 L602.97231,90.6706161 L614.452532,87.3933649 L614.452532,87.9395735 L618.825949,86.3009479 L619.372627,87.9395735 L619.919304,87.9395735 L620.465981,87.9395735 L620.465981,89.5781991 L622.106013,90.1244076 L622.65269,88.485782 L623.199367,88.485782 L623.199367,89.5781991 L622.65269,90.6706161 L623.199367,92.8554502 L623.746044,93.4016588 L624.292722,92.3092417 L624.839399,91.7630332 L625.386076,92.3092417 L625.932753,91.2168246 L625.932753,90.1244076 L626.47943,90.1244076 L627.572785,89.0319905 L627.572785,87.9395735 L628.666139,87.9395735 L629.212816,89.0319905 L629.212816,90.6706161 L630.306171,90.6706161 L630.852848,89.5781991 L631.399525,89.0319905 L633.039557,88.485782 L636.31962,86.8471564 L636.31962,85.2085308 L635.772943,84.6623223 L635.226266,83.5699052 L634.132911,81.9312796 L633.586234,81.9312796 L634.132911,83.0236967 C634.132911,83.0236967 635.395336,84.2155863 635.75321,84.8115311 C635.942013,85.1259338 635.772943,85.7547393 635.772943,85.7547393 L634.132911,86.3009479 L633.586234,86.8471564 L633.039557,87.3933649 L631.946203,87.3933649 L629.759494,87.3933649 L629.212816,86.3009479 L629.212816,84.6623223 L628.119462,85.2085308 L626.47943,84.6623223 L627.026108,83.0236967 L624.839399,80.8388626 L623.746044,81.3850711 L623.199367,81.9312796 L622.106013,81.3850711 L621.559335,80.8388626 L621.559335,79.7464455 L622.106013,79.200237 L622.106013,78.6540284 L623.199367,78.1078199 L622.65269,77.5616114 L622.65269,76.4691943 L624.839399,75.9229858 L625.386076,74.8305687 L624.292722,75.3767773 L623.199367,74.8305687 L622.65269,74.2843602 L622.65269,73.1919431 L621.559335,73.1919431 L622.106013,72.0995261 L621.012658,72.0995261 L619.919304,72.6457346 C619.919304,72.6457346 619.554852,73.3740126 619.372627,73.7381517 L618.825949,73.7381517 L617.732595,75.9229858 L616.092563,76.4691943 L604.612342,79.200237 L595.318829,80.8388626 L594.772152,91.7630332 Z M628.666139,93.4016588 L628.666139,94.4940758 L629.759494,93.4016588 L631.946203,92.8554502 L630.306171,91.7630332 L629.759494,92.8554502 L628.666139,93.4016588 Z M635.772943,92.8554502 L636.31962,93.4016588 L637.412975,93.4016588 L637.959652,92.8554502 L637.412975,91.7630332 L636.866297,92.8554502 L635.772943,92.8554502 Z M622.106013,91.2168246 L621.559335,92.3092417 L622.106013,93.9478673 L622.65269,93.4016588 L622.106013,91.2168246 Z" id="Massachusetts-(MA)"></path>
                <polygon id="Maryland-(MD)" points="532.997627 141.468009 534.637658 149.114929 536.824367 146.930095 537.917722 145.291469 538.464399 144.199052 540.10443 144.199052 541.744462 142.560427 541.744462 140.921801 542.837816 142.560427 544.477848 142.560427 545.571203 142.014218 546.11788 140.375592 547.757911 140.375592 548.304589 139.283175 548.851266 138.736967 551.037975 139.829384 553.224684 139.283175 552.678006 140.375592 553.224684 140.375592 553.771361 141.468009 554.864715 142.014218 554.864715 143.106635 557.051424 143.106635 558.691456 143.652844 558.144778 145.291469 559.238133 146.383886 561.424842 146.383886 561.971519 147.476303 563.611551 147.476303 564.158228 146.383886 565.798259 148.022512 565.251582 149.114929 565.251582 150.207346 564.704905 151.299763 564.704905 152.39218 563.611551 154.030806 563.611551 155.669431 564.704905 155.669431 564.704905 154.030806 565.798259 154.577014 566.344937 154.030806 567.438291 155.669431 568.531646 156.21564 567.984968 154.577014 569.078323 155.669431 569.625 156.761848 571.265032 156.21564 572.358386 156.761848 572.905063 157.308057 573.998418 156.761848 575.091772 158.400474 575.638449 157.308057 573.998418 155.669431 573.451741 155.669431 571.811709 154.577014 570.718354 154.030806 569.625 152.39218 569.625 150.207346 570.718354 152.39218 571.811709 153.484597 573.998418 154.577014 573.998418 154.030806 571.811709 151.845972 571.811709 150.207346 570.718354 149.114929 570.718354 148.022512 570.718354 146.383886 569.625 145.837678 570.718354 145.291469 569.078323 144.745261 570.718354 143.106635 568.531646 141.468009 569.625 140.921801 570.171677 141.468009 570.171677 140.375592 571.265032 139.283175 570.718354 138.736967 571.811709 138.190758 572.358386 139.283175 572.358386 137.098341 572.905063 138.190758 573.998418 137.64455 573.451741 136.552133 573.998418 135.459716 575.091772 134.367299 575.638449 136.005924 576.731804 134.913507 576.731804 136.005924 575.638449 137.098341 577.278481 137.64455 576.731804 138.190758 574.545095 138.736967 573.451741 140.375592 573.451741 142.560427 574.545095 142.014218 575.091772 142.014218 574.545095 144.199052 573.998418 144.745261 572.905063 144.745261 572.905063 145.837678 575.091772 144.745261 575.638449 145.837678 575.091772 146.930095 576.185127 146.930095 575.638449 148.022512 575.091772 148.56872 576.731804 149.661137 577.825158 149.114929 578.371835 150.207346 575.091772 150.753555 575.638449 151.845972 575.091772 152.938389 577.278481 153.484597 578.371835 155.123223 578.371835 153.484597 579.46519 153.484597 580.558544 151.845972 580.558544 153.484597 580.558544 154.577014 581.105222 154.577014 580.558544 155.669431 581.651899 155.669431 582.198576 156.761848 581.651899 158.400474 584.385285 157.854265 587.118671 156.761848 587.118671 155.123223 588.212025 154.577014 587.665348 152.938389 589.30538 152.39218 589.30538 151.299763 588.212025 149.661137 581.651899 151.299763 576.731804 132.728673"></polygon>
                <polygon id="Maine-(ME)" points="620.465981 2.18483412 615.545886 14.7476303 616.092563 18.57109 614.999209 20.2097156 614.999209 21.3021327 614.452532 22.9407583 615.545886 23.4869668 614.999209 24.0331754 614.999209 26.2180095 616.092563 26.2180095 614.999209 28.4028436 614.999209 30.0414692 613.359177 32.2263033 612.8125 33.8649289 613.905854 34.957346 613.359177 36.049763 612.265823 35.5035545 612.265823 36.049763 612.265823 38.2345972 610.625791 36.5959716 609.532437 38.2345972 618.279272 63.9063981 618.279272 65.5450237 620.465981 66.6374408 620.465981 68.2760664 622.65269 69.3684834 623.199367 66.6374408 622.65269 64.4526066 624.292722 63.3601896 624.839399 62.813981 624.292722 60.6291469 625.932753 60.0829384 624.839399 57.8981043 627.026108 55.1670616 628.119462 55.1670616 628.119462 56.8056872 628.666139 55.7132701 629.759494 56.8056872 630.306171 55.7132701 627.572785 52.436019 630.306171 54.6208531 630.306171 51.8898104 631.946203 54.6208531 633.039557 50.7973934 634.679589 51.8898104 635.772943 50.7973934 636.31962 48.6125592 635.772943 44.7890995 636.31962 43.6966825 637.412975 42.0580569 637.959652 43.1504739 639.053006 44.7890995 640.693038 44.7890995 641.239715 42.6042654 642.879747 43.1504739 643.973101 44.242891 645.066456 40.9656398 643.973101 39.8732227 646.15981 40.9656398 647.799842 39.8732227 649.439873 36.5959716 650.533228 36.5959716 652.719937 35.5035545 655.453323 33.3187204 656 31.1338863 654.359968 31.6800948 654.359968 29.4952607 652.173259 27.8566351 651.079905 28.4028436 648.893196 27.3104265 648.346519 26.2180095 647.799842 24.5793839 648.346519 22.9407583 647.253165 22.3945498 644.519778 22.3945498 643.426424 21.8483412 642.879747 18.57109 637.412975 2.73104265 634.679589 1.63862559 633.039557 0 630.852848 0.546208531 629.759494 2.18483412 627.572785 3.27725118 625.386076 4.36966825 623.746044 3.82345972 623.199367 1.63862559"></polygon>
                <polygon id="Louisiana-(LA)" points="365.714399 264.911137 402.341772 262.726303 403.981804 263.81872 402.888449 265.457346 403.435127 266.549763 403.981804 267.095972 402.888449 267.64218 403.981804 269.280806 403.981804 270.919431 406.168513 272.558057 405.075158 275.835308 404.528481 275.835308 405.075158 278.020142 401.795095 280.751185 400.701741 284.574645 399.608386 286.21327 400.155063 288.398104 399.608386 289.490521 398.515032 289.490521 399.061709 291.675355 399.061709 293.86019 423.662184 291.675355 423.662184 292.767773 423.115506 296.591232 423.662184 298.229858 425.302215 299.868483 426.39557 303.145735 426.39557 303.691943 424.755538 303.691943 422.022152 303.145735 420.38212 301.507109 418.195411 301.507109 415.462025 304.78436 416.008703 306.422986 418.195411 306.969194 420.38212 307.515403 423.662184 305.330569 425.848892 305.330569 425.302215 306.422986 423.662184 306.969194 424.208861 308.061611 425.302215 308.061611 426.39557 309.154028 427.488924 308.061611 428.582278 305.876777 429.675633 308.061611 430.22231 309.154028 428.582278 309.154028 427.488924 311.338863 425.848892 310.792654 426.39557 312.43128 425.302215 312.977488 429.128956 315.708531 433.502373 316.800948 435.689082 319.531991 434.049051 321.170616 432.409019 319.531991 431.862342 320.078199 430.22231 318.439573 428.035601 317.893365 427.488924 316.800948 425.848892 317.347156 424.208861 315.162322 420.928797 314.069905 419.288766 314.069905 419.835443 315.162322 421.475475 316.254739 421.475475 317.893365 421.475475 319.531991 420.38212 321.170616 419.288766 320.078199 419.288766 318.985782 417.102057 317.893365 415.462025 318.439573 414.368671 318.985782 413.821994 321.170616 409.995253 320.624408 408.355222 320.624408 405.621835 320.078199 405.621835 318.985782 407.808544 319.531991 407.261867 318.439573 405.621835 316.800948 406.168513 315.162322 405.621835 314.616114 404.528481 316.254739 402.341772 315.708531 401.795095 315.162322 401.248418 314.069905 400.701741 314.616114 400.155063 312.977488 397.421677 313.523697 397.421677 311.885071 395.781646 311.885071 393.594937 312.977488 392.501582 313.523697 394.141614 315.162322 391.954905 316.800948 386.488133 316.800948 381.568038 314.069905 378.287975 313.523697 376.101266 314.069905 371.727848 315.162322 370.634494 315.162322 370.087816 314.069905 371.727848 313.523697 371.727848 311.885071 371.727848 310.792654 371.727848 309.700237 372.274525 307.515403 371.181171 305.330569 371.727848 304.238152 371.727848 302.599526 372.821203 300.414692 373.36788 298.776066 373.36788 295.498815 373.914557 294.952607 373.36788 294.406398 373.36788 292.767773 371.727848 291.129147 371.727848 289.490521 370.634494 288.398104 370.634494 287.851896 369.541139 286.759479 369.541139 284.574645 367.901108 282.38981 366.261076 280.751185"></polygon>
                <polygon id="Kentucky-(KY)" points="419.835443 207.013033 436.782437 205.374408 436.782437 204.281991 436.235759 202.643365 439.515823 202.643365 489.810127 197.727488 490.903481 196.635071 496.91693 193.35782 497.463608 191.719194 500.196994 190.626777 500.196994 189.53436 501.290348 188.441943 501.290348 186.803318 505.117089 184.618483 508.943829 179.702607 508.943829 179.156398 507.303797 179.156398 504.570411 177.517773 502.383703 174.78673 501.837025 173.694313 499.650316 171.509479 500.196994 169.324645 499.650316 167.686019 498.556962 166.047393 496.370253 165.501185 495.276899 162.770142 493.09019 164.408768 492.543513 165.501185 490.903481 165.501185 490.356804 166.047393 489.263449 164.954976 487.076741 164.954976 485.983386 166.593602 484.890032 166.047393 483.25 164.408768 480.516614 164.954976 478.876582 164.408768 478.329905 163.316351 477.236551 161.131517 476.143196 161.131517 475.049842 160.0391 473.956487 161.131517 472.316456 160.0391 470.676424 161.677725 471.223101 162.770142 471.223101 163.862559 472.316456 164.408768 472.316456 166.047393 470.676424 166.047393 467.943038 167.686019 466.849684 167.13981 464.662975 167.686019 465.209652 170.417062 464.116297 172.055687 463.022943 172.055687 463.022943 174.240521 461.929589 174.78673 460.836234 174.78673 460.289557 176.971564 460.289557 179.156398 458.649525 180.248815 457.009494 179.156398 455.369462 178.61019 454.822785 177.517773 453.72943 179.156398 452.636076 181.341232 452.089399 182.979858 450.996044 182.433649 449.356013 181.341232 447.715981 181.887441 447.169304 182.433649 446.075949 184.618483 444.982595 183.526066 442.249209 182.433649 440.609177 183.526066 440.0625 182.433649 440.0625 184.072275 439.515823 184.618483 438.969146 183.526066 437.875791 184.072275 436.235759 183.526066 436.235759 185.7109 434.595728 185.7109 434.049051 186.803318 433.502373 188.441943 434.595728 189.53436 434.595728 190.626777 430.22231 192.265403 429.675633 193.904028 430.768987 195.542654 431.315665 196.635071 430.22231 197.18128 429.675633 197.18128 425.848892 195.542654 424.208861 195.542654 423.115506 196.635071 422.022152 198.273697 422.568829 198.819905 422.022152 199.366114 423.115506 199.366114 422.568829 201.550948 423.115506 202.643365 422.022152 205.920616 420.38212 204.828199 420.38212 205.374408"></polygon>
                <path d="M306.839852,160.00689 C292.752939,160.199696 264.579114,160.0391 264.579114,160.0391 L263.485759,205.374408 C263.485759,205.374408 293.067898,206.112851 307.858967,205.935865 C323.499596,205.748712 354.780854,204.281991 354.780854,204.281991 L353.6875,170.96327 L352.594146,170.417062 L350.954114,170.417062 L349.860759,168.778436 L349.860759,167.686019 L348.220728,166.593602 L347.127373,165.501185 L348.220728,163.862559 L348.767405,162.770142 L349.860759,162.223934 L349.314082,160.585308 L348.220728,160.0391 L347.127373,160.585308 L344.393987,158.946682 C344.393987,158.946682 319.357897,159.835557 306.839852,160.00689 Z" id="Kansas-(KS)"></path>
                <path d="M338.380538,149.661137 C338.380538,149.661137 354.047393,149.317947 361.88082,148.873247 C370.083258,148.407599 386.488133,146.930095 386.488133,146.930095 L390.314873,150.207346 L390.861551,149.661137 L390.314873,147.476303 L393.594937,145.291469 L393.594937,143.106635 L395.781646,140.921801 L395.234968,139.283175 L393.048259,137.098341 L394.141614,133.82109 L398.515032,132.728673 L401.795095,130.543839 L401.795095,128.359005 L403.435127,126.720379 L402.888449,122.350711 L399.608386,121.258294 L399.608386,119.619668 L396.875,117.434834 L395.781646,114.703791 L392.501582,114.703791 L390.861551,111.42654 L390.314873,107.603081 L391.408228,105.964455 L389.768196,104.872038 L389.221519,103.233412 L327.446994,106.510664 L327.446994,107.603081 L328.540348,108.695498 L327.993671,110.334123 L329.087025,111.42654 L328.540348,115.796209 L327.446994,117.434834 L329.087025,121.258294 L330.18038,121.258294 L330.727057,123.989336 L330.727057,126.174171 L331.820411,126.720379 L332.367089,128.359005 L333.460443,128.905213 L333.460443,130.543839 L334.553797,131.636256 L334.00712,134.913507 L335.647152,136.552133 L335.647152,138.190758 L337.287184,139.283175 L336.193829,139.829384 L337.287184,140.921801 L337.287184,147.476303 L338.380538,148.56872 L338.380538,149.661137 Z" id="Iowa-(IA)"></path>
                <polygon id="Indiana-(IN)" points="434.595728 125.627962 436.235759 126.720379 437.875791 126.720379 442.795886 123.989336 466.303006 120.712085 466.303006 121.804502 471.223101 161.131517 470.676424 161.677725 471.223101 162.770142 471.223101 163.862559 472.316456 164.408768 472.316456 166.047393 470.676424 166.047393 467.943038 167.686019 466.849684 167.13981 464.662975 167.686019 465.209652 170.417062 464.116297 172.055687 463.022943 172.055687 463.022943 174.240521 461.929589 174.78673 460.836234 174.78673 460.289557 176.971564 460.289557 179.156398 458.649525 180.248815 457.009494 179.156398 455.369462 178.61019 454.822785 177.517773 453.72943 179.156398 453.182753 180.248815 452.636076 181.341232 452.089399 182.979858 450.996044 182.433649 449.356013 181.341232 447.715981 181.887441 447.169304 182.433649 446.075949 184.618483 444.982595 183.526066 442.249209 182.433649 440.609177 183.526066 440.0625 182.433649 440.0625 184.072275 439.515823 184.618483 438.969146 183.526066 437.875791 184.072275 436.235759 183.526066 436.235759 184.618483 436.235759 185.7109 434.595728 185.7109 434.049051 184.072275 434.595728 183.526066 434.595728 181.341232 435.689082 180.248815 434.595728 179.156398 435.142405 178.063981 436.235759 177.517773 437.329114 175.332938 438.422468 174.240521 438.422468 172.601896 439.515823 170.96327 439.515823 169.870853 438.969146 168.232227 438.969146 167.13981 437.875791 165.501185 436.782437 164.408768 437.875791 163.862559 437.329114 162.223934 438.422468 161.131517"></polygon>
                <polygon id="Illinois-(IL)" points="429.675633 114.157583 396.875 117.434834 399.608386 119.619668 399.608386 121.258294 402.888449 122.350711 403.435127 126.720379 401.795095 128.359005 401.795095 130.543839 398.515032 132.728673 394.141614 133.82109 393.048259 137.098341 395.234968 139.283175 395.781646 140.921801 393.594937 143.106635 393.594937 145.291469 390.314873 147.476303 390.861551 149.661137 390.314873 150.207346 389.768196 151.299763 389.221519 153.484597 390.314873 156.761848 391.954905 160.0391 395.234968 162.770142 395.781646 163.862559 399.061709 165.501185 400.155063 167.13981 400.155063 168.778436 401.248418 171.509479 402.341772 172.601896 403.981804 170.96327 406.168513 170.96327 407.808544 172.601896 407.261867 173.148104 407.261867 175.332938 405.621835 179.702607 405.621835 181.887441 409.995253 185.164692 413.275316 186.803318 413.821994 186.803318 414.915348 188.441943 417.102057 189.53436 417.102057 191.719194 418.195411 192.811611 418.195411 193.35782 417.648734 194.996445 417.648734 195.542654 419.288766 197.727488 419.288766 198.819905 420.928797 199.366114 420.928797 198.273697 422.022152 199.366114 422.568829 198.819905 422.022152 198.273697 423.115506 196.635071 424.208861 195.542654 425.848892 195.542654 429.675633 197.18128 430.22231 197.18128 431.315665 196.635071 430.768987 195.542654 429.675633 193.904028 430.22231 192.265403 431.862342 191.719194 434.595728 190.626777 434.595728 189.53436 433.502373 188.441943 434.049051 186.803318 434.595728 185.7109 434.049051 184.072275 434.595728 183.526066 434.595728 181.341232 435.689082 180.248815 434.595728 179.156398 435.142405 178.063981 436.235759 177.517773 437.329114 175.332938 438.422468 174.240521 438.422468 172.601896 439.515823 170.96327 439.515823 169.870853 438.969146 168.232227 438.969146 167.13981 437.875791 165.501185 436.782437 164.408768 437.875791 163.862559 437.329114 162.223934 438.422468 161.131517 434.595728 125.627962 432.955696 123.989336 432.409019 122.350711 432.409019 120.712085 430.768987 119.619668 430.22231 117.981043 429.675633 117.434834"></polygon>
                <polygon id="Idaho-(ID)" points="159.617089 123.443128 162.897152 85.7547393 160.163766 81.9312796 159.070411 81.9312796 157.977057 84.1161137 154.696994 84.1161137 154.150316 83.5699052 149.230222 83.0236967 148.136867 84.6623223 144.310127 83.5699052 143.216772 85.2085308 141.030063 83.0236967 139.936709 78.6540284 138.296677 78.6540284 136.656646 77.0154028 137.203323 74.8305687 135.016614 70.4609005 133.923259 66.0912322 132.829905 63.9063981 128.456487 67.1836493 126.269778 64.9988152 126.269778 61.721564 127.90981 61.1753555 127.363133 56.8056872 128.456487 56.2594787 130.643196 49.7049763 127.363133 49.7049763 127.363133 48.0663507 126.269778 48.0663507 124.08307 45.8815166 124.629747 44.7890995 120.803006 39.8732227 119.162975 38.7808057 116.976266 36.049763 117.522943 36.049763 116.976266 34.4111374 117.522943 33.3187204 116.429589 30.5876777 114.24288 27.3104265 116.429589 13.6552133 106.042722 12.0165877 100.029272 49.7049763 101.122627 51.8898104 101.122627 52.9822275 100.575949 53.528436 101.122627 56.8056872 104.40269 59.5367299 104.949367 62.2677725 102.215981 65.5450237 101.669304 66.6374408 99.4825949 69.9146919 98.9359177 71.5533175 96.7492089 73.7381517 94.0158228 77.0154028 93.4691456 80.292654 95.6558544 80.8388626 96.7492089 81.9312796 95.6558544 83.0236967 95.6558544 84.6623223 94.5625 86.8471564 90.1890823 114.157583 124.629747 119.07346"></polygon>
                <polygon id="Georgia-(GA)" points="501.290348 220.122038 469.58307 224.491706 479.423259 255.079384 481.609968 259.995261 483.25 262.180095 483.25 264.364929 484.890032 264.911137 483.25 266.549763 483.25 269.280806 482.156646 270.373223 482.156646 273.104265 484.343354 275.835308 483.796677 281.297393 485.436709 282.936019 485.983386 284.574645 487.076741 286.21327 487.623418 288.398104 519.877373 286.21327 523.157437 285.667062 523.157437 286.759479 524.250791 288.398104 525.890823 288.398104 526.4375 285.120853 525.344146 284.574645 525.344146 282.38981 526.4375 281.297393 529.170886 281.843602 532.450949 281.843602 531.357595 280.204976 532.450949 278.020142 531.357595 278.020142 531.904272 276.927725 531.357595 275.835308 531.357595 275.2891 531.357595 273.650474 532.450949 273.650474 532.450949 275.2891 533.544304 273.104265 530.810918 272.558057 530.810918 271.46564 533.544304 272.011848 532.997627 270.919431 534.637658 269.280806 532.997627 269.827014 531.904272 268.734597 534.090981 268.188389 532.997627 267.095972 533.544304 266.003555 532.450949 265.457346 534.637658 265.457346 535.184335 264.364929 533.544304 263.81872 534.090981 262.726303 536.27769 263.272512 536.27769 262.180095 537.371044 261.087678 535.731013 260.541469 534.637658 259.995261 534.090981 260.541469 532.997627 258.902844 532.997627 256.718009 531.357595 254.533175 530.810918 253.440758 529.170886 253.440758 528.624209 252.348341 528.077532 250.163507 526.984177 248.524882 526.984177 247.432464 524.250791 245.793839 522.610759 245.793839 522.610759 244.701422 521.517405 244.155213 521.517405 243.062796 519.877373 242.516588 519.877373 241.424171 518.237342 239.785545 516.59731 239.785545 514.957278 237.054502 512.223892 235.962085 511.677215 234.869668 510.583861 234.869668 510.037184 233.231043 508.397152 232.138626 507.850475 231.592417 507.303797 229.953791 505.663766 228.861374 505.663766 227.222749 503.477057 227.768957 501.837025 226.67654 501.290348 226.130332 499.650316 225.584123 498.556962 225.037915 499.650316 222.853081 500.196994 221.760664"></polygon>
                <polygon id="Florida-(FL)" points="485.983386 284.574645 452.089399 288.398104 451.542722 291.129147 453.182753 292.767773 454.822785 293.313981 454.822785 295.498815 455.369462 296.591232 456.462816 296.591232 455.369462 298.776066 455.916139 299.322275 458.649525 296.045024 458.102848 294.406398 459.74288 295.498815 460.289557 294.406398 461.382911 294.406398 460.836234 295.498815 462.476266 296.045024 461.382911 296.591232 466.303006 296.045024 467.396361 294.406398 468.489715 294.406398 471.223101 293.86019 472.863133 295.498815 470.129747 296.045024 474.503165 297.137441 477.783228 298.776066 476.143196 297.137441 477.783228 296.045024 478.329905 297.137441 479.969937 295.498815 480.516614 296.591232 478.876582 298.229858 479.969937 298.776066 481.609968 298.776066 482.703323 299.868483 481.609968 300.414692 479.969937 299.868483 482.703323 301.507109 484.343354 303.145735 484.343354 304.78436 485.983386 304.78436 488.170095 303.691943 490.356804 302.053318 490.903481 303.145735 494.730222 299.868483 496.91693 299.868483 494.730222 298.776066 496.91693 297.137441 498.556962 296.591232 501.290348 296.591232 503.477057 297.683649 505.117089 297.683649 507.303797 299.868483 507.850475 300.9609 510.037184 301.507109 510.583861 303.691943 511.677215 304.78436 513.317247 305.330569 514.410601 306.969194 516.050633 308.061611 519.330696 308.061611 520.424051 310.792654 522.064082 311.885071 522.064082 314.069905 522.610759 315.162322 522.610759 320.624408 521.517405 323.35545 522.610759 324.447867 522.064082 328.271327 524.250791 329.909953 524.797468 327.725118 523.157437 326.632701 523.704114 324.994076 525.890823 326.086493 525.890823 327.725118 526.984177 326.086493 527.530854 327.17891 528.077532 328.271327 525.890823 331.548578 525.344146 333.733412 526.984177 335.372038 527.530854 337.010664 529.170886 339.195498 530.264241 340.834123 531.904272 342.472749 533.544304 342.472749 531.357595 340.287915 532.997627 340.287915 535.184335 339.741706 535.731013 340.287915 534.637658 340.834123 535.184335 344.657583 535.731013 346.296209 536.824367 345.75 536.824367 344.657583 539.011076 343.018957 539.011076 344.111374 537.917722 345.203791 536.824367 346.842417 537.917722 347.388626 538.464399 346.842417 539.557753 349.027251 540.10443 351.758294 541.744462 353.943128 546.11788 355.035545 547.757911 356.127962 547.757911 357.220379 548.304589 357.766588 549.94462 359.405213 551.037975 361.590047 553.771361 362.136256 554.864715 363.228673 553.771361 364.32109 551.037975 362.682464 551.037975 364.32109 552.131329 365.413507 554.864715 364.867299 555.411392 363.774882 557.598101 364.32109 559.238133 362.136256 560.878165 362.136256 562.518196 359.405213 561.424842 358.312796 562.518196 354.489336 563.064873 351.212085 563.064873 348.481043 563.064873 345.203791 562.518196 344.657583 562.518196 340.287915 561.971519 337.010664 560.878165 335.918246 560.878165 334.825829 558.691456 332.640995 557.598101 332.640995 557.051424 331.548578 558.691456 332.094787 557.598101 329.909953 557.051424 329.363744 554.864715 325.540284 552.678006 322.263033 549.94462 317.893365 547.211234 314.069905 546.11788 310.246445 547.211234 309.700237 547.757911 311.885071 549.397943 311.885071 544.477848 305.876777 539.557753 299.322275 536.27769 291.675355 535.731013 290.582938 534.637658 288.398104 534.090981 285.667062 532.450949 284.574645 532.450949 282.936019 533.544304 282.936019 533.544304 281.843602 529.170886 281.843602 526.4375 281.297393 525.344146 282.38981 525.344146 284.574645 526.4375 285.120853 525.890823 288.398104 524.250791 288.398104 523.157437 286.759479 523.157437 285.667062 519.877373 286.21327 487.623418 288.398104 487.076741 286.21327"></polygon>
                <polygon id="Delaware-(DE)" points="581.651899 151.299763 588.212025 149.661137 589.30538 149.114929 589.30538 148.56872 588.758703 147.476303 587.118671 148.022512 587.665348 146.930095 587.665348 145.837678 588.758703 145.291469 587.665348 144.745261 586.571994 144.199052 584.931962 143.106635 584.931962 142.014218 582.745253 140.921801 582.745253 138.736967 579.46519 136.005924 579.46519 134.367299 578.918513 133.82109 578.918513 132.728673 580.011867 131.636256 580.558544 129.99763 578.371835 129.99763 577.278481 131.090047 576.731804 132.728673"></polygon>
                <polygon id="Connecticut-(CT)" points="595.318829 91.7630332 596.958861 102.687204 598.052215 103.779621 595.865506 106.510664 596.958861 107.056872 598.598892 107.056872 601.332278 103.779621 602.97231 103.233412 604.065665 101.594787 605.159019 101.594787 607.892405 100.50237 610.625791 99.9561611 610.079114 98.8637441 611.719146 99.4099526 612.8125 98.8637441 614.452532 98.3175355 615.545886 97.771327 616.639241 97.771327 616.639241 95.5864929 614.452532 87.3933649 602.97231 90.6706161 602.425633 90.1244076"></polygon>
                <path d="M226.311709,143.652844 C213.022036,143.041344 181.484177,140.375592 181.484177,140.375592 L176.564082,201.004739 C176.564082,201.004739 197.351345,202.788327 209.658347,203.407016 C226.325237,204.244883 263.485759,205.374408 263.485759,205.374408 L264.579114,144.199052 C264.579114,144.199052 240.720348,144.31583 226.311709,143.652844 Z" id="Colorado-(CO)"></path>
                <polygon id="California-(CA)" points="55.7484177 108.695498 7.64082278 98.8637441 7.64082278 100.50237 6.54746835 102.140995 7.64082278 103.233412 7.64082278 108.149289 5.45411392 112.518957 5.45411392 113.611374 4.90743671 115.796209 5.45411392 116.342417 3.81408228 116.888626 3.26740506 117.981043 2.17405063 118.527251 0.534018987 121.258294 0.534018987 123.989336 2.72072785 127.266588 3.26740506 128.359005 4.90743671 131.636256 4.90743671 136.552133 3.26740506 139.283175 3.81408228 140.921801 4.36075949 144.745261 3.26740506 145.291469 7.09414557 151.845972 9.28085443 154.030806 9.28085443 156.21564 10.3742089 157.854265 11.4675633 160.0391 11.4675633 161.131517 9.82753165 158.946682 9.82753165 160.0391 12.0142405 163.316351 12.5609177 163.316351 14.2009494 164.954976 15.2943038 160.585308 16.9343354 160.0391 19.1210443 162.223934 20.2143987 161.677725 21.3077532 161.131517 21.8544304 162.223934 22.9477848 162.770142 24.5878165 162.770142 26.2278481 163.316351 27.8678797 164.954976 27.3212025 164.954976 25.6811709 163.862559 24.5878165 164.408768 22.9477848 163.862559 20.2143987 162.770142 19.1210443 163.316351 18.0276899 162.223934 16.3876582 163.316351 16.3876582 163.862559 16.9343354 164.954976 16.9343354 166.047393 18.0276899 167.13981 18.0276899 169.324645 18.0276899 170.96327 19.1210443 171.509479 18.5743671 172.055687 16.9343354 170.96327 15.2943038 168.778436 15.2943038 167.686019 15.2943038 166.047393 14.2009494 166.047393 13.6542722 167.13981 14.2009494 168.232227 13.6542722 169.870853 14.2009494 172.055687 13.6542722 174.240521 15.2943038 177.517773 16.9343354 179.156398 19.1210443 179.702607 20.2143987 181.887441 19.6677215 184.072275 18.0276899 185.164692 17.4810127 185.164692 17.4810127 189.53436 18.0276899 190.626777 19.6677215 192.265403 20.2143987 194.450237 21.3077532 194.996445 21.3077532 197.18128 22.4011076 198.819905 22.4011076 200.458531 24.5878165 201.550948 25.1344937 203.735782 27.3212025 204.828199 27.3212025 206.466825 26.2278481 207.559242 26.7745253 208.651659 28.9612342 209.744076 28.9612342 211.382701 28.414557 213.567536 28.414557 215.75237 28.414557 217.390995 27.3212025 218.483412 28.9612342 219.029621 29.5079114 220.668246 33.3346519 220.668246 33.8813291 221.760664 35.5213608 221.760664 36.6147152 222.853081 38.2547468 223.399289 39.8947785 222.853081 43.1748418 225.584123 44.2681962 228.315166 48.0949367 230.5 49.1882911 231.046209 52.4683544 231.046209 54.1083861 233.231043 53.5617089 235.962085 54.6550633 236.508294 55.7484177 235.962085 57.3884494 236.508294 59.5751582 239.239336 62.8552215 243.062796 64.4952532 244.701422 65.5886076 247.978673 66.1352848 250.709716 65.5886076 252.89455 66.1352848 253.986967 67.2286392 255.079384 67.2286392 256.718009 97.8425633 258.902844 98.3892405 258.356635 100.029272 258.902844 100.575949 258.902844 101.122627 257.810427 101.669304 256.718009 101.669304 254.533175 99.4825949 253.986967 98.9359177 252.89455 99.4825949 251.255924 99.4825949 247.978673 101.122627 247.978673 102.215981 245.793839 102.762658 243.609005 103.309335 241.424171 103.309335 240.331754 104.40269 239.239336 104.949367 238.146919 107.136076 237.054502 108.776108 235.415877 106.042722 232.684834 105.496044 229.407583 104.40269 227.222749 103.856013 226.130332 103.856013 224.491706 47.5482595 152.938389"></polygon>
                <polygon id="Arkansas-(AR)" points="359.154272 255.625592 358.060918 228.315166 355.327532 212.475118 355.327532 211.92891 410.54193 208.10545 412.181962 209.744076 412.181962 210.836493 409.448576 214.659953 408.901899 215.206161 408.901899 216.298578 416.55538 215.206161 417.648734 215.75237 418.195411 216.298578 416.55538 216.298578 416.55538 217.390995 417.102057 217.937204 414.368671 219.575829 414.915348 221.760664 414.915348 222.853081 413.821994 222.853081 413.275316 225.037915 412.728639 226.67654 413.821994 228.861374 412.181962 228.861374 411.088608 231.046209 411.088608 232.684834 409.448576 233.777251 409.448576 235.415877 407.808544 235.415877 407.808544 240.331754 406.168513 241.424171 406.168513 242.516588 403.981804 244.701422 405.075158 245.793839 404.528481 246.340047 402.341772 247.432464 402.888449 250.163507 401.248418 252.348341 402.341772 253.440758 401.248418 254.533175 402.341772 255.625592 402.341772 258.356635 403.435127 259.995261 402.341772 261.087678 402.341772 262.726303 365.167722 264.911137 365.167722 256.718009 364.621044 256.171801 361.887658 256.171801 361.340981 256.718009 360.247627 256.171801"></polygon>
                <path d="M137.774041,197.398435 C150.704055,198.782606 176.564082,201.004739 176.564082,201.004739 L169.457278,287.851896 L143.216772,285.667062 L96.2025316,262.180095 L96.7492089,260.541469 L97.8425633,258.902844 L98.3892405,258.356635 L100.029272,258.902844 L100.575949,258.902844 L101.669304,256.718009 L101.669304,254.533175 L99.4825949,253.986967 L98.9359177,252.89455 L99.4825949,251.255924 L99.4825949,247.978673 L101.122627,247.978673 L102.215981,245.793839 L103.309335,241.424171 L103.309335,240.331754 L104.40269,239.239336 L104.949367,238.146919 L107.136076,237.054502 L108.776108,235.415877 L106.042722,232.684834 L105.496044,229.407583 L103.856013,226.130332 L103.856013,222.306872 L104.949367,221.760664 L104.949367,219.575829 L104.40269,216.844787 L104.949367,215.206161 L104.40269,212.475118 L104.949367,211.382701 L104.40269,209.744076 L104.949367,207.559242 L107.136076,206.466825 L108.776108,207.559242 L109.869462,207.013033 L110.416139,209.197867 L112.056171,209.197867 L113.696203,205.920616 L115.336234,194.450237 C115.336234,194.450237 130.294772,196.597772 137.774041,197.398435 Z" id="Arizona-(AZ)"></path>
                <polygon id="Alabama-(AL)" points="437.329114 228.315166 437.875791 229.407583 438.969146 229.953791 438.969146 276.927725 442.249209 298.776066 444.435918 298.776066 445.529272 299.868483 446.075949 299.868483 446.075949 296.591232 446.622627 293.313981 448.809335 294.952607 448.262658 297.137441 449.356013 298.229858 451.542722 300.414692 453.182753 299.868483 452.636076 298.776066 453.72943 298.776066 455.369462 296.591232 454.822785 295.498815 454.822785 293.313981 453.182753 292.767773 451.542722 291.129147 452.089399 288.398104 485.983386 284.574645 485.436709 282.936019 483.796677 281.297393 484.343354 275.835308 482.156646 273.104265 482.156646 270.373223 483.25 269.280806 483.25 266.549763 484.890032 264.911137 483.25 264.364929 483.25 262.180095 481.609968 259.995261 479.423259 255.079384 469.58307 224.491706"></polygon>
            </g>
            <circle id="Oval" fill="#F55F36" fill-rule="nonzero" cx="97" cy="30" r="7"></circle>
            <circle id="Oval" fill="#F55F36" fill-rule="nonzero" cx="136" cy="49" r="7"></circle>
            <circle id="Oval" fill="#F55F36" fill-rule="nonzero" cx="134" cy="29" r="7"></circle>
            <circle id="Oval" stroke="#282828" stroke-width="2" fill="#F55F36" fill-rule="nonzero" cx="131" cy="32" r="7"></circle>
            <circle id="Oval" fill="#F55F36" fill-rule="nonzero" cx="199" cy="70" r="7"></circle>
            <circle id="Oval" fill="#F55F36" fill-rule="nonzero" cx="229" cy="162" r="7"></circle>
            <circle id="Oval" fill="#F55F36" fill-rule="nonzero" cx="210" cy="168" r="7"></circle>
            <circle id="Oval" stroke="#282828" stroke-width="2" fill="#F55F36" fill-rule="nonzero" cx="234" cy="169" r="7"></circle>
            <circle id="Oval" fill="#F55F36" fill-rule="nonzero" cx="373" cy="56" r="7"></circle>
            <circle id="Oval" fill="#F55F36" fill-rule="nonzero" cx="48" cy="21" r="7"></circle>
            <circle id="Oval" fill="#F55F36" fill-rule="nonzero" cx="34" cy="56" r="7"></circle>
        </g>
    </g>
</svg>